<?xml version="1.0" encoding="utf-8" standalone="no"?>
<!DOCTYPE svg PUBLIC "-//W3C//DTD SVG 1.1//EN"
  "http://www.w3.org/Graphics/SVG/1.1/DTD/svg11.dtd">
<svg xmlns:xlink="http://www.w3.org/1999/xlink" width="855.762779pt" height="424.789337pt" viewBox="0 0 855.762779 424.789337" xmlns="http://www.w3.org/2000/svg" version="1.1">
 <metadata>
  <rdf:RDF xmlns:dc="http://purl.org/dc/elements/1.1/" xmlns:cc="http://creativecommons.org/ns#" xmlns:rdf="http://www.w3.org/1999/02/22-rdf-syntax-ns#">
   <cc:Work>
    <dc:type rdf:resource="http://purl.org/dc/dcmitype/StillImage"/>
    <dc:date>2026-03-22T02:17:38.053225</dc:date>
    <dc:format>image/svg+xml</dc:format>
    <dc:creator>
     <cc:Agent>
      <dc:title>Matplotlib v3.10.8, https://matplotlib.org/</dc:title>
     </cc:Agent>
    </dc:creator>
   </cc:Work>
  </rdf:RDF>
 </metadata>
 <defs>
  <style type="text/css">*{stroke-linejoin: round; stroke-linecap: butt}</style>
 </defs>
 <g id="figure_1">
  <g id="patch_1">
   <path d="M 0 424.789337 
L 855.762779 424.789337 
L 855.762779 0 
L 0 0 
z
" style="fill: #ffffff"/>
  </g>
  <g id="axes_1">
   <g id="patch_2">
    <path d="M 51.378125 289.908307 
L 848.562779 289.908307 
L 848.562779 22.318125 
L 51.378125 22.318125 
z
" style="fill: #ffffff"/>
   </g>
   <g id="patch_3">
    <path d="M 87.613791 34738.161858 
L 93.933965 34738.161858 
L 93.933965 125.445574 
L 87.613791 125.445574 
z
" clip-path="url(#p53e67ff6ab)" style="fill: #1f77b4"/>
   </g>
   <g id="patch_4">
    <path d="M 155.028984 34738.161858 
L 161.349158 34738.161858 
L 161.349158 126.167094 
L 155.028984 126.167094 
z
" clip-path="url(#p53e67ff6ab)" style="fill: #1f77b4"/>
   </g>
   <g id="patch_5">
    <path d="M 222.444177 34738.161858 
L 228.764351 34738.161858 
L 228.764351 232.764907 
L 222.444177 232.764907 
z
" clip-path="url(#p53e67ff6ab)" style="fill: #1f77b4"/>
   </g>
   <g id="patch_6">
    <path d="M 289.859369 34738.161858 
L 296.179544 34738.161858 
L 296.179544 133.648656 
L 289.859369 133.648656 
z
" clip-path="url(#p53e67ff6ab)" style="fill: #1f77b4"/>
   </g>
   <g id="patch_7">
    <path d="M 357.274562 34738.161858 
L 363.594736 34738.161858 
L 363.594736 110.834879 
L 357.274562 110.834879 
z
" clip-path="url(#p53e67ff6ab)" style="fill: #1f77b4"/>
   </g>
   <g id="patch_8">
    <path d="M 424.689755 34738.161858 
L 431.009929 34738.161858 
L 431.009929 52.962797 
L 424.689755 52.962797 
z
" clip-path="url(#p53e67ff6ab)" style="fill: #1f77b4"/>
   </g>
   <g id="patch_9">
    <path d="M 492.104947 34738.161858 
L 498.425122 34738.161858 
L 498.425122 278.625187 
L 492.104947 278.625187 
z
" clip-path="url(#p53e67ff6ab)" style="fill: #1f77b4"/>
   </g>
   <g id="patch_10">
    <path d="M 559.52014 34738.161858 
L 565.840314 34738.161858 
L 565.840314 124.490156 
L 559.52014 124.490156 
z
" clip-path="url(#p53e67ff6ab)" style="fill: #1f77b4"/>
   </g>
   <g id="patch_11">
    <path d="M 626.935333 34738.161858 
L 633.255507 34738.161858 
L 633.255507 109.505206 
L 626.935333 109.505206 
z
" clip-path="url(#p53e67ff6ab)" style="fill: #1f77b4"/>
   </g>
   <g id="patch_12">
    <path d="M 694.350526 34738.161858 
L 700.6707 34738.161858 
L 700.6707 127.239 
L 694.350526 127.239 
z
" clip-path="url(#p53e67ff6ab)" style="fill: #1f77b4"/>
   </g>
   <g id="patch_13">
    <path d="M 761.765718 34738.161858 
L 768.085893 34738.161858 
L 768.085893 109.310663 
L 761.765718 109.310663 
z
" clip-path="url(#p53e67ff6ab)" style="fill: #1f77b4"/>
   </g>
   <g id="patch_14">
    <path d="M 93.933965 34738.161858 
L 100.25414 34738.161858 
L 100.25414 160.445896 
L 93.933965 160.445896 
z
" clip-path="url(#p53e67ff6ab)" style="fill: url(#h5b9d37acef)"/>
   </g>
   <g id="patch_15">
    <path d="M 161.349158 34738.161858 
L 167.669332 34738.161858 
L 167.669332 196.403276 
L 161.349158 196.403276 
z
" clip-path="url(#p53e67ff6ab)" style="fill: url(#h5b9d37acef)"/>
   </g>
   <g id="patch_16">
    <path d="M 228.764351 34738.161858 
L 235.084525 34738.161858 
L 235.084525 133.746084 
L 228.764351 133.746084 
z
" clip-path="url(#p53e67ff6ab)" style="fill: url(#h5b9d37acef)"/>
   </g>
   <g id="patch_17">
    <path d="M 296.179544 34738.161858 
L 302.499718 34738.161858 
L 302.499718 165.12207 
L 296.179544 165.12207 
z
" clip-path="url(#p53e67ff6ab)" style="fill: url(#h5b9d37acef)"/>
   </g>
   <g id="patch_18">
    <path d="M 363.594736 34738.161858 
L 369.914911 34738.161858 
L 369.914911 162.471448 
L 363.594736 162.471448 
z
" clip-path="url(#p53e67ff6ab)" style="fill: url(#h5b9d37acef)"/>
   </g>
   <g id="patch_19">
    <path d="M 431.009929 34738.161858 
L 437.330103 34738.161858 
L 437.330103 173.697031 
L 431.009929 173.697031 
z
" clip-path="url(#p53e67ff6ab)" style="fill: url(#h5b9d37acef)"/>
   </g>
   <g id="patch_20">
    <path d="M 498.425122 34738.161858 
L 504.745296 34738.161858 
L 504.745296 139.366448 
L 498.425122 139.366448 
z
" clip-path="url(#p53e67ff6ab)" style="fill: url(#h5b9d37acef)"/>
   </g>
   <g id="patch_21">
    <path d="M 565.840314 34738.161858 
L 572.160489 34738.161858 
L 572.160489 164.48938 
L 565.840314 164.48938 
z
" clip-path="url(#p53e67ff6ab)" style="fill: url(#h5b9d37acef)"/>
   </g>
   <g id="patch_22">
    <path d="M 633.255507 34738.161858 
L 639.575681 34738.161858 
L 639.575681 104.829031 
L 633.255507 104.829031 
z
" clip-path="url(#p53e67ff6ab)" style="fill: url(#h5b9d37acef)"/>
   </g>
   <g id="patch_23">
    <path d="M 700.6707 34738.161858 
L 706.990874 34738.161858 
L 706.990874 190.717076 
L 700.6707 190.717076 
z
" clip-path="url(#p53e67ff6ab)" style="fill: url(#h5b9d37acef)"/>
   </g>
   <g id="patch_24">
    <path d="M 768.085893 34738.161858 
L 774.406067 34738.161858 
L 774.406067 182.824157 
L 768.085893 182.824157 
z
" clip-path="url(#p53e67ff6ab)" style="fill: url(#h5b9d37acef)"/>
   </g>
   <g id="patch_25">
    <path d="M 100.25414 34738.161858 
L 106.574314 34738.161858 
L 106.574314 108.741655 
L 100.25414 108.741655 
z
" clip-path="url(#p53e67ff6ab)" style="fill: #d62728"/>
   </g>
   <g id="patch_26">
    <path d="M 167.669332 34738.161858 
L 173.989507 34738.161858 
L 173.989507 89.90715 
L 167.669332 89.90715 
z
" clip-path="url(#p53e67ff6ab)" style="fill: #d62728"/>
   </g>
   <g id="patch_27">
    <path d="M 235.084525 34738.161858 
L 241.404699 34738.161858 
L 241.404699 99.426372 
L 235.084525 99.426372 
z
" clip-path="url(#p53e67ff6ab)" style="fill: #d62728"/>
   </g>
   <g id="patch_28">
    <path d="M 302.499718 34738.161858 
L 308.819892 34738.161858 
L 308.819892 108.928948 
L 302.499718 108.928948 
z
" clip-path="url(#p53e67ff6ab)" style="fill: #d62728"/>
   </g>
   <g id="patch_29">
    <path d="M 369.914911 34738.161858 
L 376.235085 34738.161858 
L 376.235085 90.31283 
L 369.914911 90.31283 
z
" clip-path="url(#p53e67ff6ab)" style="fill: #d62728"/>
   </g>
   <g id="patch_30">
    <path d="M 437.330103 34738.161858 
L 443.650278 34738.161858 
L 443.650278 103.326922 
L 437.330103 103.326922 
z
" clip-path="url(#p53e67ff6ab)" style="fill: #d62728"/>
   </g>
   <g id="patch_31">
    <path d="M 504.745296 34738.161858 
L 511.06547 34738.161858 
L 511.06547 109.118598 
L 504.745296 109.118598 
z
" clip-path="url(#p53e67ff6ab)" style="fill: #d62728"/>
   </g>
   <g id="patch_32">
    <path d="M 572.160489 34738.161858 
L 578.480663 34738.161858 
L 578.480663 99.152917 
L 572.160489 99.152917 
z
" clip-path="url(#p53e67ff6ab)" style="fill: #d62728"/>
   </g>
   <g id="patch_33">
    <path d="M 639.575681 34738.161858 
L 645.895856 34738.161858 
L 645.895856 90.31283 
L 639.575681 90.31283 
z
" clip-path="url(#p53e67ff6ab)" style="fill: #d62728"/>
   </g>
   <g id="patch_34">
    <path d="M 706.990874 34738.161858 
L 713.311048 34738.161858 
L 713.311048 92.47562 
L 706.990874 92.47562 
z
" clip-path="url(#p53e67ff6ab)" style="fill: #d62728"/>
   </g>
   <g id="patch_35">
    <path d="M 774.406067 34738.161858 
L 780.726241 34738.161858 
L 780.726241 87.67864 
L 774.406067 87.67864 
z
" clip-path="url(#p53e67ff6ab)" style="fill: #d62728"/>
   </g>
   <g id="patch_36">
    <path d="M 106.574314 34738.161858 
L 112.894488 34738.161858 
L 112.894488 131.502473 
L 106.574314 131.502473 
z
" clip-path="url(#p53e67ff6ab)" style="fill: url(#h87b3918e23)"/>
   </g>
   <g id="patch_37">
    <path d="M 173.989507 34738.161858 
L 180.309681 34738.161858 
L 180.309681 98.932812 
L 173.989507 98.932812 
z
" clip-path="url(#p53e67ff6ab)" style="fill: url(#h87b3918e23)"/>
   </g>
   <g id="patch_38">
    <path d="M 241.404699 34738.161858 
L 247.724874 34738.161858 
L 247.724874 86.462994 
L 241.404699 86.462994 
z
" clip-path="url(#p53e67ff6ab)" style="fill: url(#h87b3918e23)"/>
   </g>
   <g id="patch_39">
    <path d="M 308.819892 34738.161858 
L 315.140066 34738.161858 
L 315.140066 124.892231 
L 308.819892 124.892231 
z
" clip-path="url(#p53e67ff6ab)" style="fill: url(#h87b3918e23)"/>
   </g>
   <g id="patch_40">
    <path d="M 376.235085 34738.161858 
L 382.555259 34738.161858 
L 382.555259 104.334662 
L 376.235085 104.334662 
z
" clip-path="url(#p53e67ff6ab)" style="fill: url(#h87b3918e23)"/>
   </g>
   <g id="patch_41">
    <path d="M 443.650278 34738.161858 
L 449.970452 34738.161858 
L 449.970452 113.907969 
L 443.650278 113.907969 
z
" clip-path="url(#p53e67ff6ab)" style="fill: url(#h87b3918e23)"/>
   </g>
   <g id="patch_42">
    <path d="M 511.06547 34738.161858 
L 517.385645 34738.161858 
L 517.385645 91.749812 
L 511.06547 91.749812 
z
" clip-path="url(#p53e67ff6ab)" style="fill: url(#h87b3918e23)"/>
   </g>
   <g id="patch_43">
    <path d="M 578.480663 34738.161858 
L 584.800837 34738.161858 
L 584.800837 111.658958 
L 578.480663 111.658958 
z
" clip-path="url(#p53e67ff6ab)" style="fill: url(#h87b3918e23)"/>
   </g>
   <g id="patch_44">
    <path d="M 645.895856 34738.161858 
L 652.21603 34738.161858 
L 652.21603 105.564636 
L 645.895856 105.564636 
z
" clip-path="url(#p53e67ff6ab)" style="fill: url(#h87b3918e23)"/>
   </g>
   <g id="patch_45">
    <path d="M 713.311048 34738.161858 
L 719.631223 34738.161858 
L 719.631223 100.491678 
L 713.311048 100.491678 
z
" clip-path="url(#p53e67ff6ab)" style="fill: url(#h87b3918e23)"/>
   </g>
   <g id="patch_46">
    <path d="M 780.726241 34738.161858 
L 787.046416 34738.161858 
L 787.046416 101.961002 
L 780.726241 101.961002 
z
" clip-path="url(#p53e67ff6ab)" style="fill: url(#h87b3918e23)"/>
   </g>
   <g id="patch_47">
    <path d="M 112.894488 34738.161858 
L 119.214663 34738.161858 
L 119.214663 124.622993 
L 112.894488 124.622993 
z
" clip-path="url(#p53e67ff6ab)" style="fill: #e377c2"/>
   </g>
   <g id="patch_48">
    <path d="M 180.309681 34738.161858 
L 186.629855 34738.161858 
L 186.629855 125.587142 
L 180.309681 125.587142 
z
" clip-path="url(#p53e67ff6ab)" style="fill: #e377c2"/>
   </g>
   <g id="patch_49">
    <path d="M 247.724874 34738.161858 
L 254.045048 34738.161858 
L 254.045048 109.95233 
L 247.724874 109.95233 
z
" clip-path="url(#p53e67ff6ab)" style="fill: #e377c2"/>
   </g>
   <g id="patch_50">
    <path d="M 315.140066 34738.161858 
L 321.460241 34738.161858 
L 321.460241 133.503685 
L 315.140066 133.503685 
z
" clip-path="url(#p53e67ff6ab)" style="fill: #e377c2"/>
   </g>
   <g id="patch_51">
    <path d="M 382.555259 34738.161858 
L 388.875434 34738.161858 
L 388.875434 109.702292 
L 382.555259 109.702292 
z
" clip-path="url(#p53e67ff6ab)" style="fill: #e377c2"/>
   </g>
   <g id="patch_52">
    <path d="M 449.970452 34738.161858 
L 456.290626 34738.161858 
L 456.290626 113.583722 
L 449.970452 113.583722 
z
" clip-path="url(#p53e67ff6ab)" style="fill: #e377c2"/>
   </g>
   <g id="patch_53">
    <path d="M 517.385645 34738.161858 
L 523.705819 34738.161858 
L 523.705819 108.741655 
L 517.385645 108.741655 
z
" clip-path="url(#p53e67ff6ab)" style="fill: #e377c2"/>
   </g>
   <g id="patch_54">
    <path d="M 584.800837 34738.161858 
L 591.121012 34738.161858 
L 591.121012 124.227943 
L 584.800837 124.227943 
z
" clip-path="url(#p53e67ff6ab)" style="fill: #e377c2"/>
   </g>
   <g id="patch_55">
    <path d="M 652.21603 34738.161858 
L 658.536204 34738.161858 
L 658.536204 109.456334 
L 652.21603 109.456334 
z
" clip-path="url(#p53e67ff6ab)" style="fill: #e377c2"/>
   </g>
   <g id="patch_56">
    <path d="M 719.631223 34738.161858 
L 725.951397 34738.161858 
L 725.951397 126.987188 
L 719.631223 126.987188 
z
" clip-path="url(#p53e67ff6ab)" style="fill: #e377c2"/>
   </g>
   <g id="patch_57">
    <path d="M 787.046416 34738.161858 
L 793.36659 34738.161858 
L 793.36659 109.40762 
L 787.046416 109.40762 
z
" clip-path="url(#p53e67ff6ab)" style="fill: #e377c2"/>
   </g>
   <g id="patch_58">
    <path d="M 119.214663 34738.161858 
L 125.534837 34738.161858 
L 125.534837 187.374164 
L 119.214663 187.374164 
z
" clip-path="url(#p53e67ff6ab)" style="fill: url(#h949f69acf0)"/>
   </g>
   <g id="patch_59">
    <path d="M 186.629855 34738.161858 
L 192.95003 34738.161858 
L 192.95003 215.91985 
L 186.629855 215.91985 
z
" clip-path="url(#p53e67ff6ab)" style="fill: url(#h949f69acf0)"/>
   </g>
   <g id="patch_60">
    <path d="M 254.045048 34738.161858 
L 260.365222 34738.161858 
L 260.365222 93.642917 
L 254.045048 93.642917 
z
" clip-path="url(#p53e67ff6ab)" style="fill: url(#h949f69acf0)"/>
   </g>
   <g id="patch_61">
    <path d="M 321.460241 34738.161858 
L 327.780415 34738.161858 
L 327.780415 176.376872 
L 321.460241 176.376872 
z
" clip-path="url(#p53e67ff6ab)" style="fill: url(#h949f69acf0)"/>
   </g>
   <g id="patch_62">
    <path d="M 388.875434 34738.161858 
L 395.195608 34738.161858 
L 395.195608 179.434526 
L 388.875434 179.434526 
z
" clip-path="url(#p53e67ff6ab)" style="fill: url(#h949f69acf0)"/>
   </g>
   <g id="patch_63">
    <path d="M 456.290626 34738.161858 
L 462.610801 34738.161858 
L 462.610801 124.358479 
L 456.290626 124.358479 
z
" clip-path="url(#p53e67ff6ab)" style="fill: url(#h949f69acf0)"/>
   </g>
   <g id="patch_64">
    <path d="M 523.705819 34738.161858 
L 530.025993 34738.161858 
L 530.025993 91.45125 
L 523.705819 91.45125 
z
" clip-path="url(#p53e67ff6ab)" style="fill: url(#h949f69acf0)"/>
   </g>
   <g id="patch_65">
    <path d="M 591.121012 34738.161858 
L 597.441186 34738.161858 
L 597.441186 185.001178 
L 591.121012 185.001178 
z
" clip-path="url(#p53e67ff6ab)" style="fill: url(#h949f69acf0)"/>
   </g>
   <g id="patch_66">
    <path d="M 658.536204 34738.161858 
L 664.856379 34738.161858 
L 664.856379 175.147851 
L 658.536204 175.147851 
z
" clip-path="url(#p53e67ff6ab)" style="fill: url(#h949f69acf0)"/>
   </g>
   <g id="patch_67">
    <path d="M 725.951397 34738.161858 
L 732.271571 34738.161858 
L 732.271571 194.460362 
L 725.951397 194.460362 
z
" clip-path="url(#p53e67ff6ab)" style="fill: url(#h949f69acf0)"/>
   </g>
   <g id="patch_68">
    <path d="M 793.36659 34738.161858 
L 799.686764 34738.161858 
L 799.686764 190.504722 
L 793.36659 190.504722 
z
" clip-path="url(#p53e67ff6ab)" style="fill: url(#h949f69acf0)"/>
   </g>
   <g id="patch_69">
    <path d="M 125.534837 34738.161858 
L 131.855011 34738.161858 
L 131.855011 121.285389 
L 125.534837 121.285389 
z
" clip-path="url(#p53e67ff6ab)" style="fill: #17becf"/>
   </g>
   <g id="patch_70">
    <path d="M 192.95003 34738.161858 
L 199.270204 34738.161858 
L 199.270204 115.136631 
L 192.95003 115.136631 
z
" clip-path="url(#p53e67ff6ab)" style="fill: #17becf"/>
   </g>
   <g id="patch_71">
    <path d="M 260.365222 34738.161858 
L 266.685397 34738.161858 
L 266.685397 186.868746 
L 260.365222 186.868746 
z
" clip-path="url(#p53e67ff6ab)" style="fill: #17becf"/>
   </g>
   <g id="patch_72">
    <path d="M 327.780415 34738.161858 
L 334.100589 34738.161858 
L 334.100589 130.903859 
L 327.780415 130.903859 
z
" clip-path="url(#p53e67ff6ab)" style="fill: #17becf"/>
   </g>
   <g id="patch_73">
    <path d="M 395.195608 34738.161858 
L 401.515782 34738.161858 
L 401.515782 96.934754 
L 395.195608 96.934754 
z
" clip-path="url(#p53e67ff6ab)" style="fill: #17becf"/>
   </g>
   <g id="patch_74">
    <path d="M 462.610801 34738.161858 
L 468.930975 34738.161858 
L 468.930975 112.590646 
L 462.610801 112.590646 
z
" clip-path="url(#p53e67ff6ab)" style="fill: #17becf"/>
   </g>
   <g id="patch_75">
    <path d="M 530.025993 34738.161858 
L 536.346168 34738.161858 
L 536.346168 202.935372 
L 530.025993 202.935372 
z
" clip-path="url(#p53e67ff6ab)" style="fill: #17becf"/>
   </g>
   <g id="patch_76">
    <path d="M 597.441186 34738.161858 
L 603.76136 34738.161858 
L 603.76136 102.020477 
L 597.441186 102.020477 
z
" clip-path="url(#p53e67ff6ab)" style="fill: #17becf"/>
   </g>
   <g id="patch_77">
    <path d="M 664.856379 34738.161858 
L 671.176553 34738.161858 
L 671.176553 88.628681 
L 664.856379 88.628681 
z
" clip-path="url(#p53e67ff6ab)" style="fill: #17becf"/>
   </g>
   <g id="patch_78">
    <path d="M 732.271571 34738.161858 
L 738.591746 34738.161858 
L 738.591746 110.675333 
L 732.271571 110.675333 
z
" clip-path="url(#p53e67ff6ab)" style="fill: #17becf"/>
   </g>
   <g id="patch_79">
    <path d="M 799.686764 34738.161858 
L 806.006938 34738.161858 
L 806.006938 84.758141 
L 799.686764 84.758141 
z
" clip-path="url(#p53e67ff6ab)" style="fill: #17becf"/>
   </g>
   <g id="patch_80">
    <path d="M 131.855011 34738.161858 
L 138.175186 34738.161858 
L 138.175186 166.218317 
L 131.855011 166.218317 
z
" clip-path="url(#p53e67ff6ab)" style="fill: url(#h0169a26d98)"/>
   </g>
   <g id="patch_81">
    <path d="M 199.270204 34738.161858 
L 205.590378 34738.161858 
L 205.590378 133.383931 
L 199.270204 133.383931 
z
" clip-path="url(#p53e67ff6ab)" style="fill: url(#h0169a26d98)"/>
   </g>
   <g id="patch_82">
    <path d="M 266.685397 34738.161858 
L 273.005571 34738.161858 
L 273.005571 175.690523 
L 266.685397 175.690523 
z
" clip-path="url(#p53e67ff6ab)" style="fill: url(#h0169a26d98)"/>
   </g>
   <g id="patch_83">
    <path d="M 334.100589 34738.161858 
L 340.420764 34738.161858 
L 340.420764 168.95874 
L 334.100589 168.95874 
z
" clip-path="url(#p53e67ff6ab)" style="fill: url(#h0169a26d98)"/>
   </g>
   <g id="patch_84">
    <path d="M 401.515782 34738.161858 
L 407.835956 34738.161858 
L 407.835956 110.053517 
L 401.515782 110.053517 
z
" clip-path="url(#p53e67ff6ab)" style="fill: url(#h0169a26d98)"/>
   </g>
   <g id="patch_85">
    <path d="M 468.930975 34738.161858 
L 475.251149 34738.161858 
L 475.251149 145.76611 
L 468.930975 145.76611 
z
" clip-path="url(#p53e67ff6ab)" style="fill: url(#h0169a26d98)"/>
   </g>
   <g id="patch_86">
    <path d="M 536.346168 34738.161858 
L 542.666342 34738.161858 
L 542.666342 162.55379 
L 536.346168 162.55379 
z
" clip-path="url(#p53e67ff6ab)" style="fill: url(#h0169a26d98)"/>
   </g>
   <g id="patch_87">
    <path d="M 603.76136 34738.161858 
L 610.081535 34738.161858 
L 610.081535 115.865126 
L 603.76136 115.865126 
z
" clip-path="url(#p53e67ff6ab)" style="fill: url(#h0169a26d98)"/>
   </g>
   <g id="patch_88">
    <path d="M 671.176553 34738.161858 
L 677.496727 34738.161858 
L 677.496727 104.829031 
L 671.176553 104.829031 
z
" clip-path="url(#p53e67ff6ab)" style="fill: url(#h0169a26d98)"/>
   </g>
   <g id="patch_89">
    <path d="M 738.591746 34738.161858 
L 744.91192 34738.161858 
L 744.91192 130.076981 
L 738.591746 130.076981 
z
" clip-path="url(#p53e67ff6ab)" style="fill: url(#h0169a26d98)"/>
   </g>
   <g id="patch_90">
    <path d="M 806.006938 34738.161858 
L 812.327113 34738.161858 
L 812.327113 98.152187 
L 806.006938 98.152187 
z
" clip-path="url(#p53e67ff6ab)" style="fill: url(#h0169a26d98)"/>
   </g>
   <g id="matplotlib.axis_1">
    <g id="xtick_1">
     <g id="line2d_1">
      <defs>
       <path id="m16420d044d" d="M 0 0 
L 0 3.5 
" style="stroke: #000000; stroke-width: 0.8"/>
      </defs>
      <g>
       <use xlink:href="#m16420d044d" x="109.734401" y="289.908307" style="stroke: #000000; stroke-width: 0.8"/>
      </g>
     </g>
     <g id="text_1">
      <!-- e^x - normalized -->
      <g transform="translate(47.46481 363.080243) rotate(-45) scale(0.1 -0.1)">
       <defs>
        <path id="DejaVuSans-65" d="M 3597 1894 
L 3597 1613 
L 953 1613 
Q 991 1019 1311 708 
Q 1631 397 2203 397 
Q 2534 397 2845 478 
Q 3156 559 3463 722 
L 3463 178 
Q 3153 47 2828 -22 
Q 2503 -91 2169 -91 
Q 1331 -91 842 396 
Q 353 884 353 1716 
Q 353 2575 817 3079 
Q 1281 3584 2069 3584 
Q 2775 3584 3186 3129 
Q 3597 2675 3597 1894 
z
M 3022 2063 
Q 3016 2534 2758 2815 
Q 2500 3097 2075 3097 
Q 1594 3097 1305 2825 
Q 1016 2553 972 2059 
L 3022 2063 
z
" transform="scale(0.015625)"/>
        <path id="DejaVuSans-5e" d="M 2988 4666 
L 4684 2925 
L 4056 2925 
L 2681 4159 
L 1306 2925 
L 678 2925 
L 2375 4666 
L 2988 4666 
z
" transform="scale(0.015625)"/>
        <path id="DejaVuSans-78" d="M 3513 3500 
L 2247 1797 
L 3578 0 
L 2900 0 
L 1881 1375 
L 863 0 
L 184 0 
L 1544 1831 
L 300 3500 
L 978 3500 
L 1906 2253 
L 2834 3500 
L 3513 3500 
z
" transform="scale(0.015625)"/>
        <path id="DejaVuSans-20" transform="scale(0.015625)"/>
        <path id="DejaVuSans-2d" d="M 313 2009 
L 1997 2009 
L 1997 1497 
L 313 1497 
L 313 2009 
z
" transform="scale(0.015625)"/>
        <path id="DejaVuSans-6e" d="M 3513 2113 
L 3513 0 
L 2938 0 
L 2938 2094 
Q 2938 2591 2744 2837 
Q 2550 3084 2163 3084 
Q 1697 3084 1428 2787 
Q 1159 2491 1159 1978 
L 1159 0 
L 581 0 
L 581 3500 
L 1159 3500 
L 1159 2956 
Q 1366 3272 1645 3428 
Q 1925 3584 2291 3584 
Q 2894 3584 3203 3211 
Q 3513 2838 3513 2113 
z
" transform="scale(0.015625)"/>
        <path id="DejaVuSans-6f" d="M 1959 3097 
Q 1497 3097 1228 2736 
Q 959 2375 959 1747 
Q 959 1119 1226 758 
Q 1494 397 1959 397 
Q 2419 397 2687 759 
Q 2956 1122 2956 1747 
Q 2956 2369 2687 2733 
Q 2419 3097 1959 3097 
z
M 1959 3584 
Q 2709 3584 3137 3096 
Q 3566 2609 3566 1747 
Q 3566 888 3137 398 
Q 2709 -91 1959 -91 
Q 1206 -91 779 398 
Q 353 888 353 1747 
Q 353 2609 779 3096 
Q 1206 3584 1959 3584 
z
" transform="scale(0.015625)"/>
        <path id="DejaVuSans-72" d="M 2631 2963 
Q 2534 3019 2420 3045 
Q 2306 3072 2169 3072 
Q 1681 3072 1420 2755 
Q 1159 2438 1159 1844 
L 1159 0 
L 581 0 
L 581 3500 
L 1159 3500 
L 1159 2956 
Q 1341 3275 1631 3429 
Q 1922 3584 2338 3584 
Q 2397 3584 2469 3576 
Q 2541 3569 2628 3553 
L 2631 2963 
z
" transform="scale(0.015625)"/>
        <path id="DejaVuSans-6d" d="M 3328 2828 
Q 3544 3216 3844 3400 
Q 4144 3584 4550 3584 
Q 5097 3584 5394 3201 
Q 5691 2819 5691 2113 
L 5691 0 
L 5113 0 
L 5113 2094 
Q 5113 2597 4934 2840 
Q 4756 3084 4391 3084 
Q 3944 3084 3684 2787 
Q 3425 2491 3425 1978 
L 3425 0 
L 2847 0 
L 2847 2094 
Q 2847 2600 2669 2842 
Q 2491 3084 2119 3084 
Q 1678 3084 1418 2786 
Q 1159 2488 1159 1978 
L 1159 0 
L 581 0 
L 581 3500 
L 1159 3500 
L 1159 2956 
Q 1356 3278 1631 3431 
Q 1906 3584 2284 3584 
Q 2666 3584 2933 3390 
Q 3200 3197 3328 2828 
z
" transform="scale(0.015625)"/>
        <path id="DejaVuSans-61" d="M 2194 1759 
Q 1497 1759 1228 1600 
Q 959 1441 959 1056 
Q 959 750 1161 570 
Q 1363 391 1709 391 
Q 2188 391 2477 730 
Q 2766 1069 2766 1631 
L 2766 1759 
L 2194 1759 
z
M 3341 1997 
L 3341 0 
L 2766 0 
L 2766 531 
Q 2569 213 2275 61 
Q 1981 -91 1556 -91 
Q 1019 -91 701 211 
Q 384 513 384 1019 
Q 384 1609 779 1909 
Q 1175 2209 1959 2209 
L 2766 2209 
L 2766 2266 
Q 2766 2663 2505 2880 
Q 2244 3097 1772 3097 
Q 1472 3097 1187 3025 
Q 903 2953 641 2809 
L 641 3341 
Q 956 3463 1253 3523 
Q 1550 3584 1831 3584 
Q 2591 3584 2966 3190 
Q 3341 2797 3341 1997 
z
" transform="scale(0.015625)"/>
        <path id="DejaVuSans-6c" d="M 603 4863 
L 1178 4863 
L 1178 0 
L 603 0 
L 603 4863 
z
" transform="scale(0.015625)"/>
        <path id="DejaVuSans-69" d="M 603 3500 
L 1178 3500 
L 1178 0 
L 603 0 
L 603 3500 
z
M 603 4863 
L 1178 4863 
L 1178 4134 
L 603 4134 
L 603 4863 
z
" transform="scale(0.015625)"/>
        <path id="DejaVuSans-7a" d="M 353 3500 
L 3084 3500 
L 3084 2975 
L 922 459 
L 3084 459 
L 3084 0 
L 275 0 
L 275 525 
L 2438 3041 
L 353 3041 
L 353 3500 
z
" transform="scale(0.015625)"/>
        <path id="DejaVuSans-64" d="M 2906 2969 
L 2906 4863 
L 3481 4863 
L 3481 0 
L 2906 0 
L 2906 525 
Q 2725 213 2448 61 
Q 2172 -91 1784 -91 
Q 1150 -91 751 415 
Q 353 922 353 1747 
Q 353 2572 751 3078 
Q 1150 3584 1784 3584 
Q 2172 3584 2448 3432 
Q 2725 3281 2906 2969 
z
M 947 1747 
Q 947 1113 1208 752 
Q 1469 391 1925 391 
Q 2381 391 2643 752 
Q 2906 1113 2906 1747 
Q 2906 2381 2643 2742 
Q 2381 3103 1925 3103 
Q 1469 3103 1208 2742 
Q 947 2381 947 1747 
z
" transform="scale(0.015625)"/>
       </defs>
       <use xlink:href="#DejaVuSans-65"/>
       <use xlink:href="#DejaVuSans-5e" transform="translate(61.523438 0)"/>
       <use xlink:href="#DejaVuSans-78" transform="translate(145.3125 0)"/>
       <use xlink:href="#DejaVuSans-20" transform="translate(204.492188 0)"/>
       <use xlink:href="#DejaVuSans-2d" transform="translate(236.279297 0)"/>
       <use xlink:href="#DejaVuSans-20" transform="translate(272.363281 0)"/>
       <use xlink:href="#DejaVuSans-6e" transform="translate(304.150391 0)"/>
       <use xlink:href="#DejaVuSans-6f" transform="translate(367.529297 0)"/>
       <use xlink:href="#DejaVuSans-72" transform="translate(428.710938 0)"/>
       <use xlink:href="#DejaVuSans-6d" transform="translate(468.074219 0)"/>
       <use xlink:href="#DejaVuSans-61" transform="translate(565.486328 0)"/>
       <use xlink:href="#DejaVuSans-6c" transform="translate(626.765625 0)"/>
       <use xlink:href="#DejaVuSans-69" transform="translate(654.548828 0)"/>
       <use xlink:href="#DejaVuSans-7a" transform="translate(682.332031 0)"/>
       <use xlink:href="#DejaVuSans-65" transform="translate(734.822266 0)"/>
       <use xlink:href="#DejaVuSans-64" transform="translate(796.345703 0)"/>
      </g>
     </g>
    </g>
    <g id="xtick_2">
     <g id="line2d_2">
      <g>
       <use xlink:href="#m16420d044d" x="177.149594" y="289.908307" style="stroke: #000000; stroke-width: 0.8"/>
      </g>
     </g>
     <g id="text_2">
      <!-- e^(e^x) - normalized -->
      <g transform="translate(99.08611 378.874136) rotate(-45) scale(0.1 -0.1)">
       <defs>
        <path id="DejaVuSans-28" d="M 1984 4856 
Q 1566 4138 1362 3434 
Q 1159 2731 1159 2009 
Q 1159 1288 1364 580 
Q 1569 -128 1984 -844 
L 1484 -844 
Q 1016 -109 783 600 
Q 550 1309 550 2009 
Q 550 2706 781 3412 
Q 1013 4119 1484 4856 
L 1984 4856 
z
" transform="scale(0.015625)"/>
        <path id="DejaVuSans-29" d="M 513 4856 
L 1013 4856 
Q 1481 4119 1714 3412 
Q 1947 2706 1947 2009 
Q 1947 1309 1714 600 
Q 1481 -109 1013 -844 
L 513 -844 
Q 928 -128 1133 580 
Q 1338 1288 1338 2009 
Q 1338 2731 1133 3434 
Q 928 4138 513 4856 
z
" transform="scale(0.015625)"/>
       </defs>
       <use xlink:href="#DejaVuSans-65"/>
       <use xlink:href="#DejaVuSans-5e" transform="translate(61.523438 0)"/>
       <use xlink:href="#DejaVuSans-28" transform="translate(145.3125 0)"/>
       <use xlink:href="#DejaVuSans-65" transform="translate(184.326172 0)"/>
       <use xlink:href="#DejaVuSans-5e" transform="translate(245.849609 0)"/>
       <use xlink:href="#DejaVuSans-78" transform="translate(329.638672 0)"/>
       <use xlink:href="#DejaVuSans-29" transform="translate(388.818359 0)"/>
       <use xlink:href="#DejaVuSans-20" transform="translate(427.832031 0)"/>
       <use xlink:href="#DejaVuSans-2d" transform="translate(459.619141 0)"/>
       <use xlink:href="#DejaVuSans-20" transform="translate(495.703125 0)"/>
       <use xlink:href="#DejaVuSans-6e" transform="translate(527.490234 0)"/>
       <use xlink:href="#DejaVuSans-6f" transform="translate(590.869141 0)"/>
       <use xlink:href="#DejaVuSans-72" transform="translate(652.050781 0)"/>
       <use xlink:href="#DejaVuSans-6d" transform="translate(691.414062 0)"/>
       <use xlink:href="#DejaVuSans-61" transform="translate(788.826172 0)"/>
       <use xlink:href="#DejaVuSans-6c" transform="translate(850.105469 0)"/>
       <use xlink:href="#DejaVuSans-69" transform="translate(877.888672 0)"/>
       <use xlink:href="#DejaVuSans-7a" transform="translate(905.671875 0)"/>
       <use xlink:href="#DejaVuSans-65" transform="translate(958.162109 0)"/>
       <use xlink:href="#DejaVuSans-64" transform="translate(1019.685547 0)"/>
      </g>
     </g>
    </g>
    <g id="xtick_3">
     <g id="line2d_3">
      <g>
       <use xlink:href="#m16420d044d" x="244.564787" y="289.908307" style="stroke: #000000; stroke-width: 0.8"/>
      </g>
     </g>
     <g id="text_3">
      <!-- e^(e^(e^x)) - normalized -->
      <g transform="translate(150.70741 394.668029) rotate(-45) scale(0.1 -0.1)">
       <use xlink:href="#DejaVuSans-65"/>
       <use xlink:href="#DejaVuSans-5e" transform="translate(61.523438 0)"/>
       <use xlink:href="#DejaVuSans-28" transform="translate(145.3125 0)"/>
       <use xlink:href="#DejaVuSans-65" transform="translate(184.326172 0)"/>
       <use xlink:href="#DejaVuSans-5e" transform="translate(245.849609 0)"/>
       <use xlink:href="#DejaVuSans-28" transform="translate(329.638672 0)"/>
       <use xlink:href="#DejaVuSans-65" transform="translate(368.652344 0)"/>
       <use xlink:href="#DejaVuSans-5e" transform="translate(430.175781 0)"/>
       <use xlink:href="#DejaVuSans-78" transform="translate(513.964844 0)"/>
       <use xlink:href="#DejaVuSans-29" transform="translate(573.144531 0)"/>
       <use xlink:href="#DejaVuSans-29" transform="translate(612.158203 0)"/>
       <use xlink:href="#DejaVuSans-20" transform="translate(651.171875 0)"/>
       <use xlink:href="#DejaVuSans-2d" transform="translate(682.958984 0)"/>
       <use xlink:href="#DejaVuSans-20" transform="translate(719.042969 0)"/>
       <use xlink:href="#DejaVuSans-6e" transform="translate(750.830078 0)"/>
       <use xlink:href="#DejaVuSans-6f" transform="translate(814.208984 0)"/>
       <use xlink:href="#DejaVuSans-72" transform="translate(875.390625 0)"/>
       <use xlink:href="#DejaVuSans-6d" transform="translate(914.753906 0)"/>
       <use xlink:href="#DejaVuSans-61" transform="translate(1012.166016 0)"/>
       <use xlink:href="#DejaVuSans-6c" transform="translate(1073.445312 0)"/>
       <use xlink:href="#DejaVuSans-69" transform="translate(1101.228516 0)"/>
       <use xlink:href="#DejaVuSans-7a" transform="translate(1129.011719 0)"/>
       <use xlink:href="#DejaVuSans-65" transform="translate(1181.501953 0)"/>
       <use xlink:href="#DejaVuSans-64" transform="translate(1243.025391 0)"/>
      </g>
     </g>
    </g>
    <g id="xtick_4">
     <g id="line2d_4">
      <g>
       <use xlink:href="#m16420d044d" x="311.979979" y="289.908307" style="stroke: #000000; stroke-width: 0.8"/>
      </g>
     </g>
     <g id="text_4">
      <!-- x^2 -->
      <g transform="translate(295.899929 316.890703) rotate(-45) scale(0.1 -0.1)">
       <defs>
        <path id="DejaVuSans-32" d="M 1228 531 
L 3431 531 
L 3431 0 
L 469 0 
L 469 531 
Q 828 903 1448 1529 
Q 2069 2156 2228 2338 
Q 2531 2678 2651 2914 
Q 2772 3150 2772 3378 
Q 2772 3750 2511 3984 
Q 2250 4219 1831 4219 
Q 1534 4219 1204 4116 
Q 875 4013 500 3803 
L 500 4441 
Q 881 4594 1212 4672 
Q 1544 4750 1819 4750 
Q 2544 4750 2975 4387 
Q 3406 4025 3406 3419 
Q 3406 3131 3298 2873 
Q 3191 2616 2906 2266 
Q 2828 2175 2409 1742 
Q 1991 1309 1228 531 
z
" transform="scale(0.015625)"/>
       </defs>
       <use xlink:href="#DejaVuSans-78"/>
       <use xlink:href="#DejaVuSans-5e" transform="translate(59.179688 0)"/>
       <use xlink:href="#DejaVuSans-32" transform="translate(142.96875 0)"/>
      </g>
     </g>
    </g>
    <g id="xtick_5">
     <g id="line2d_5">
      <g>
       <use xlink:href="#m16420d044d" x="379.395172" y="289.908307" style="stroke: #000000; stroke-width: 0.8"/>
      </g>
     </g>
     <g id="text_5">
      <!-- x^5+2x^4+x^3+x -->
      <g transform="translate(307.635987 372.569837) rotate(-45) scale(0.1 -0.1)">
       <defs>
        <path id="DejaVuSans-35" d="M 691 4666 
L 3169 4666 
L 3169 4134 
L 1269 4134 
L 1269 2991 
Q 1406 3038 1543 3061 
Q 1681 3084 1819 3084 
Q 2600 3084 3056 2656 
Q 3513 2228 3513 1497 
Q 3513 744 3044 326 
Q 2575 -91 1722 -91 
Q 1428 -91 1123 -41 
Q 819 9 494 109 
L 494 744 
Q 775 591 1075 516 
Q 1375 441 1709 441 
Q 2250 441 2565 725 
Q 2881 1009 2881 1497 
Q 2881 1984 2565 2268 
Q 2250 2553 1709 2553 
Q 1456 2553 1204 2497 
Q 953 2441 691 2322 
L 691 4666 
z
" transform="scale(0.015625)"/>
        <path id="DejaVuSans-2b" d="M 2944 4013 
L 2944 2272 
L 4684 2272 
L 4684 1741 
L 2944 1741 
L 2944 0 
L 2419 0 
L 2419 1741 
L 678 1741 
L 678 2272 
L 2419 2272 
L 2419 4013 
L 2944 4013 
z
" transform="scale(0.015625)"/>
        <path id="DejaVuSans-34" d="M 2419 4116 
L 825 1625 
L 2419 1625 
L 2419 4116 
z
M 2253 4666 
L 3047 4666 
L 3047 1625 
L 3713 1625 
L 3713 1100 
L 3047 1100 
L 3047 0 
L 2419 0 
L 2419 1100 
L 313 1100 
L 313 1709 
L 2253 4666 
z
" transform="scale(0.015625)"/>
        <path id="DejaVuSans-33" d="M 2597 2516 
Q 3050 2419 3304 2112 
Q 3559 1806 3559 1356 
Q 3559 666 3084 287 
Q 2609 -91 1734 -91 
Q 1441 -91 1130 -33 
Q 819 25 488 141 
L 488 750 
Q 750 597 1062 519 
Q 1375 441 1716 441 
Q 2309 441 2620 675 
Q 2931 909 2931 1356 
Q 2931 1769 2642 2001 
Q 2353 2234 1838 2234 
L 1294 2234 
L 1294 2753 
L 1863 2753 
Q 2328 2753 2575 2939 
Q 2822 3125 2822 3475 
Q 2822 3834 2567 4026 
Q 2313 4219 1838 4219 
Q 1578 4219 1281 4162 
Q 984 4106 628 3988 
L 628 4550 
Q 988 4650 1302 4700 
Q 1616 4750 1894 4750 
Q 2613 4750 3031 4423 
Q 3450 4097 3450 3541 
Q 3450 3153 3228 2886 
Q 3006 2619 2597 2516 
z
" transform="scale(0.015625)"/>
       </defs>
       <use xlink:href="#DejaVuSans-78"/>
       <use xlink:href="#DejaVuSans-5e" transform="translate(59.179688 0)"/>
       <use xlink:href="#DejaVuSans-35" transform="translate(142.96875 0)"/>
       <use xlink:href="#DejaVuSans-2b" transform="translate(206.591797 0)"/>
       <use xlink:href="#DejaVuSans-32" transform="translate(290.380859 0)"/>
       <use xlink:href="#DejaVuSans-78" transform="translate(354.003906 0)"/>
       <use xlink:href="#DejaVuSans-5e" transform="translate(413.183594 0)"/>
       <use xlink:href="#DejaVuSans-34" transform="translate(496.972656 0)"/>
       <use xlink:href="#DejaVuSans-2b" transform="translate(560.595703 0)"/>
       <use xlink:href="#DejaVuSans-78" transform="translate(644.384766 0)"/>
       <use xlink:href="#DejaVuSans-5e" transform="translate(703.564453 0)"/>
       <use xlink:href="#DejaVuSans-33" transform="translate(787.353516 0)"/>
       <use xlink:href="#DejaVuSans-2b" transform="translate(850.976562 0)"/>
       <use xlink:href="#DejaVuSans-78" transform="translate(934.765625 0)"/>
      </g>
     </g>
    </g>
    <g id="xtick_6">
     <g id="line2d_6">
      <g>
       <use xlink:href="#m16420d044d" x="446.810365" y="289.908307" style="stroke: #000000; stroke-width: 0.8"/>
      </g>
     </g>
     <g id="text_6">
      <!-- 1.2x^4+0.37x^50+0.1x^71 -->
      <g transform="translate(342.428146 405.192872) rotate(-45) scale(0.1 -0.1)">
       <defs>
        <path id="DejaVuSans-31" d="M 794 531 
L 1825 531 
L 1825 4091 
L 703 3866 
L 703 4441 
L 1819 4666 
L 2450 4666 
L 2450 531 
L 3481 531 
L 3481 0 
L 794 0 
L 794 531 
z
" transform="scale(0.015625)"/>
        <path id="DejaVuSans-2e" d="M 684 794 
L 1344 794 
L 1344 0 
L 684 0 
L 684 794 
z
" transform="scale(0.015625)"/>
        <path id="DejaVuSans-30" d="M 2034 4250 
Q 1547 4250 1301 3770 
Q 1056 3291 1056 2328 
Q 1056 1369 1301 889 
Q 1547 409 2034 409 
Q 2525 409 2770 889 
Q 3016 1369 3016 2328 
Q 3016 3291 2770 3770 
Q 2525 4250 2034 4250 
z
M 2034 4750 
Q 2819 4750 3233 4129 
Q 3647 3509 3647 2328 
Q 3647 1150 3233 529 
Q 2819 -91 2034 -91 
Q 1250 -91 836 529 
Q 422 1150 422 2328 
Q 422 3509 836 4129 
Q 1250 4750 2034 4750 
z
" transform="scale(0.015625)"/>
        <path id="DejaVuSans-37" d="M 525 4666 
L 3525 4666 
L 3525 4397 
L 1831 0 
L 1172 0 
L 2766 4134 
L 525 4134 
L 525 4666 
z
" transform="scale(0.015625)"/>
       </defs>
       <use xlink:href="#DejaVuSans-31"/>
       <use xlink:href="#DejaVuSans-2e" transform="translate(63.623047 0)"/>
       <use xlink:href="#DejaVuSans-32" transform="translate(95.410156 0)"/>
       <use xlink:href="#DejaVuSans-78" transform="translate(159.033203 0)"/>
       <use xlink:href="#DejaVuSans-5e" transform="translate(218.212891 0)"/>
       <use xlink:href="#DejaVuSans-34" transform="translate(302.001953 0)"/>
       <use xlink:href="#DejaVuSans-2b" transform="translate(365.625 0)"/>
       <use xlink:href="#DejaVuSans-30" transform="translate(449.414062 0)"/>
       <use xlink:href="#DejaVuSans-2e" transform="translate(513.037109 0)"/>
       <use xlink:href="#DejaVuSans-33" transform="translate(544.824219 0)"/>
       <use xlink:href="#DejaVuSans-37" transform="translate(608.447266 0)"/>
       <use xlink:href="#DejaVuSans-78" transform="translate(672.070312 0)"/>
       <use xlink:href="#DejaVuSans-5e" transform="translate(731.25 0)"/>
       <use xlink:href="#DejaVuSans-35" transform="translate(815.039062 0)"/>
       <use xlink:href="#DejaVuSans-30" transform="translate(878.662109 0)"/>
       <use xlink:href="#DejaVuSans-2b" transform="translate(942.285156 0)"/>
       <use xlink:href="#DejaVuSans-30" transform="translate(1026.074219 0)"/>
       <use xlink:href="#DejaVuSans-2e" transform="translate(1089.697266 0)"/>
       <use xlink:href="#DejaVuSans-31" transform="translate(1121.484375 0)"/>
       <use xlink:href="#DejaVuSans-78" transform="translate(1185.107422 0)"/>
       <use xlink:href="#DejaVuSans-5e" transform="translate(1244.287109 0)"/>
       <use xlink:href="#DejaVuSans-37" transform="translate(1328.076172 0)"/>
       <use xlink:href="#DejaVuSans-31" transform="translate(1391.699219 0)"/>
      </g>
     </g>
    </g>
    <g id="xtick_7">
     <g id="line2d_7">
      <g>
       <use xlink:href="#m16420d044d" x="514.225557" y="289.908307" style="stroke: #000000; stroke-width: 0.8"/>
      </g>
     </g>
     <g id="text_7">
      <!-- x^200 -->
      <g transform="translate(489.147574 325.888636) rotate(-45) scale(0.1 -0.1)">
       <use xlink:href="#DejaVuSans-78"/>
       <use xlink:href="#DejaVuSans-5e" transform="translate(59.179688 0)"/>
       <use xlink:href="#DejaVuSans-32" transform="translate(142.96875 0)"/>
       <use xlink:href="#DejaVuSans-30" transform="translate(206.591797 0)"/>
       <use xlink:href="#DejaVuSans-30" transform="translate(270.214844 0)"/>
      </g>
     </g>
    </g>
    <g id="xtick_8">
     <g id="line2d_8">
      <g>
       <use xlink:href="#m16420d044d" x="581.64075" y="289.908307" style="stroke: #000000; stroke-width: 0.8"/>
      </g>
     </g>
     <g id="text_8">
      <!-- 3x^2-x^3 -->
      <g transform="translate(543.901135 338.550267) rotate(-45) scale(0.1 -0.1)">
       <use xlink:href="#DejaVuSans-33"/>
       <use xlink:href="#DejaVuSans-78" transform="translate(63.623047 0)"/>
       <use xlink:href="#DejaVuSans-5e" transform="translate(122.802734 0)"/>
       <use xlink:href="#DejaVuSans-32" transform="translate(206.591797 0)"/>
       <use xlink:href="#DejaVuSans-2d" transform="translate(270.214844 0)"/>
       <use xlink:href="#DejaVuSans-78" transform="translate(306.298828 0)"/>
       <use xlink:href="#DejaVuSans-5e" transform="translate(365.478516 0)"/>
       <use xlink:href="#DejaVuSans-33" transform="translate(449.267578 0)"/>
      </g>
     </g>
    </g>
    <g id="xtick_9">
     <g id="line2d_9">
      <g>
       <use xlink:href="#m16420d044d" x="649.055943" y="289.908307" style="stroke: #000000; stroke-width: 0.8"/>
      </g>
     </g>
     <g id="text_9">
      <!-- x^4-4x^3+6x^2 -->
      <g transform="translate(586.282538 363.584057) rotate(-45) scale(0.1 -0.1)">
       <defs>
        <path id="DejaVuSans-36" d="M 2113 2584 
Q 1688 2584 1439 2293 
Q 1191 2003 1191 1497 
Q 1191 994 1439 701 
Q 1688 409 2113 409 
Q 2538 409 2786 701 
Q 3034 994 3034 1497 
Q 3034 2003 2786 2293 
Q 2538 2584 2113 2584 
z
M 3366 4563 
L 3366 3988 
Q 3128 4100 2886 4159 
Q 2644 4219 2406 4219 
Q 1781 4219 1451 3797 
Q 1122 3375 1075 2522 
Q 1259 2794 1537 2939 
Q 1816 3084 2150 3084 
Q 2853 3084 3261 2657 
Q 3669 2231 3669 1497 
Q 3669 778 3244 343 
Q 2819 -91 2113 -91 
Q 1303 -91 875 529 
Q 447 1150 447 2328 
Q 447 3434 972 4092 
Q 1497 4750 2381 4750 
Q 2619 4750 2861 4703 
Q 3103 4656 3366 4563 
z
" transform="scale(0.015625)"/>
       </defs>
       <use xlink:href="#DejaVuSans-78"/>
       <use xlink:href="#DejaVuSans-5e" transform="translate(59.179688 0)"/>
       <use xlink:href="#DejaVuSans-34" transform="translate(142.96875 0)"/>
       <use xlink:href="#DejaVuSans-2d" transform="translate(206.591797 0)"/>
       <use xlink:href="#DejaVuSans-34" transform="translate(242.675781 0)"/>
       <use xlink:href="#DejaVuSans-78" transform="translate(306.298828 0)"/>
       <use xlink:href="#DejaVuSans-5e" transform="translate(365.478516 0)"/>
       <use xlink:href="#DejaVuSans-33" transform="translate(449.267578 0)"/>
       <use xlink:href="#DejaVuSans-2b" transform="translate(512.890625 0)"/>
       <use xlink:href="#DejaVuSans-36" transform="translate(596.679688 0)"/>
       <use xlink:href="#DejaVuSans-78" transform="translate(660.302734 0)"/>
       <use xlink:href="#DejaVuSans-5e" transform="translate(719.482422 0)"/>
       <use xlink:href="#DejaVuSans-32" transform="translate(803.271484 0)"/>
      </g>
     </g>
    </g>
    <g id="xtick_10">
     <g id="line2d_10">
      <g>
       <use xlink:href="#m16420d044d" x="716.471136" y="289.908307" style="stroke: #000000; stroke-width: 0.8"/>
      </g>
     </g>
     <g id="text_10">
      <!-- sin(pi/2 x - pi/2) + 1 -->
      <g transform="translate(644.287687 372.994101) rotate(-45) scale(0.1 -0.1)">
       <defs>
        <path id="DejaVuSans-73" d="M 2834 3397 
L 2834 2853 
Q 2591 2978 2328 3040 
Q 2066 3103 1784 3103 
Q 1356 3103 1142 2972 
Q 928 2841 928 2578 
Q 928 2378 1081 2264 
Q 1234 2150 1697 2047 
L 1894 2003 
Q 2506 1872 2764 1633 
Q 3022 1394 3022 966 
Q 3022 478 2636 193 
Q 2250 -91 1575 -91 
Q 1294 -91 989 -36 
Q 684 19 347 128 
L 347 722 
Q 666 556 975 473 
Q 1284 391 1588 391 
Q 1994 391 2212 530 
Q 2431 669 2431 922 
Q 2431 1156 2273 1281 
Q 2116 1406 1581 1522 
L 1381 1569 
Q 847 1681 609 1914 
Q 372 2147 372 2553 
Q 372 3047 722 3315 
Q 1072 3584 1716 3584 
Q 2034 3584 2315 3537 
Q 2597 3491 2834 3397 
z
" transform="scale(0.015625)"/>
        <path id="DejaVuSans-70" d="M 1159 525 
L 1159 -1331 
L 581 -1331 
L 581 3500 
L 1159 3500 
L 1159 2969 
Q 1341 3281 1617 3432 
Q 1894 3584 2278 3584 
Q 2916 3584 3314 3078 
Q 3713 2572 3713 1747 
Q 3713 922 3314 415 
Q 2916 -91 2278 -91 
Q 1894 -91 1617 61 
Q 1341 213 1159 525 
z
M 3116 1747 
Q 3116 2381 2855 2742 
Q 2594 3103 2138 3103 
Q 1681 3103 1420 2742 
Q 1159 2381 1159 1747 
Q 1159 1113 1420 752 
Q 1681 391 2138 391 
Q 2594 391 2855 752 
Q 3116 1113 3116 1747 
z
" transform="scale(0.015625)"/>
        <path id="DejaVuSans-2f" d="M 1625 4666 
L 2156 4666 
L 531 -594 
L 0 -594 
L 1625 4666 
z
" transform="scale(0.015625)"/>
       </defs>
       <use xlink:href="#DejaVuSans-73"/>
       <use xlink:href="#DejaVuSans-69" transform="translate(52.099609 0)"/>
       <use xlink:href="#DejaVuSans-6e" transform="translate(79.882812 0)"/>
       <use xlink:href="#DejaVuSans-28" transform="translate(143.261719 0)"/>
       <use xlink:href="#DejaVuSans-70" transform="translate(182.275391 0)"/>
       <use xlink:href="#DejaVuSans-69" transform="translate(245.751953 0)"/>
       <use xlink:href="#DejaVuSans-2f" transform="translate(273.535156 0)"/>
       <use xlink:href="#DejaVuSans-32" transform="translate(307.226562 0)"/>
       <use xlink:href="#DejaVuSans-20" transform="translate(370.849609 0)"/>
       <use xlink:href="#DejaVuSans-78" transform="translate(402.636719 0)"/>
       <use xlink:href="#DejaVuSans-20" transform="translate(461.816406 0)"/>
       <use xlink:href="#DejaVuSans-2d" transform="translate(493.603516 0)"/>
       <use xlink:href="#DejaVuSans-20" transform="translate(529.6875 0)"/>
       <use xlink:href="#DejaVuSans-70" transform="translate(561.474609 0)"/>
       <use xlink:href="#DejaVuSans-69" transform="translate(624.951172 0)"/>
       <use xlink:href="#DejaVuSans-2f" transform="translate(652.734375 0)"/>
       <use xlink:href="#DejaVuSans-32" transform="translate(686.425781 0)"/>
       <use xlink:href="#DejaVuSans-29" transform="translate(750.048828 0)"/>
       <use xlink:href="#DejaVuSans-20" transform="translate(789.0625 0)"/>
       <use xlink:href="#DejaVuSans-2b" transform="translate(820.849609 0)"/>
       <use xlink:href="#DejaVuSans-20" transform="translate(904.638672 0)"/>
       <use xlink:href="#DejaVuSans-31" transform="translate(936.425781 0)"/>
      </g>
     </g>
    </g>
    <g id="xtick_11">
     <g id="line2d_11">
      <g>
       <use xlink:href="#m16420d044d" x="783.886328" y="289.908307" style="stroke: #000000; stroke-width: 0.8"/>
      </g>
     </g>
     <g id="text_11">
      <!-- 4x^2 {[0,0.5]} || 4x-1 {[0.5,1]} -->
      <g transform="translate(668.60914 415.922112) rotate(-45) scale(0.1 -0.1)">
       <defs>
        <path id="DejaVuSans-7b" d="M 3272 -594 
L 3272 -1044 
L 3078 -1044 
Q 2300 -1044 2036 -812 
Q 1772 -581 1772 109 
L 1772 856 
Q 1772 1328 1603 1509 
Q 1434 1691 991 1691 
L 800 1691 
L 800 2138 
L 991 2138 
Q 1438 2138 1605 2317 
Q 1772 2497 1772 2963 
L 1772 3713 
Q 1772 4403 2036 4633 
Q 2300 4863 3078 4863 
L 3272 4863 
L 3272 4416 
L 3059 4416 
Q 2619 4416 2484 4278 
Q 2350 4141 2350 3700 
L 2350 2925 
Q 2350 2434 2208 2212 
Q 2066 1991 1722 1913 
Q 2069 1828 2209 1606 
Q 2350 1384 2350 897 
L 2350 122 
Q 2350 -319 2484 -456 
Q 2619 -594 3059 -594 
L 3272 -594 
z
" transform="scale(0.015625)"/>
        <path id="DejaVuSans-5b" d="M 550 4863 
L 1875 4863 
L 1875 4416 
L 1125 4416 
L 1125 -397 
L 1875 -397 
L 1875 -844 
L 550 -844 
L 550 4863 
z
" transform="scale(0.015625)"/>
        <path id="DejaVuSans-2c" d="M 750 794 
L 1409 794 
L 1409 256 
L 897 -744 
L 494 -744 
L 750 256 
L 750 794 
z
" transform="scale(0.015625)"/>
        <path id="DejaVuSans-5d" d="M 1947 4863 
L 1947 -844 
L 622 -844 
L 622 -397 
L 1369 -397 
L 1369 4416 
L 622 4416 
L 622 4863 
L 1947 4863 
z
" transform="scale(0.015625)"/>
        <path id="DejaVuSans-7d" d="M 800 -594 
L 1019 -594 
Q 1456 -594 1589 -459 
Q 1722 -325 1722 122 
L 1722 897 
Q 1722 1384 1862 1606 
Q 2003 1828 2350 1913 
Q 2003 1991 1862 2212 
Q 1722 2434 1722 2925 
L 1722 3700 
Q 1722 4144 1589 4280 
Q 1456 4416 1019 4416 
L 800 4416 
L 800 4863 
L 997 4863 
Q 1775 4863 2036 4633 
Q 2297 4403 2297 3713 
L 2297 2963 
Q 2297 2497 2465 2317 
Q 2634 2138 3078 2138 
L 3272 2138 
L 3272 1691 
L 3078 1691 
Q 2634 1691 2465 1509 
Q 2297 1328 2297 856 
L 2297 109 
Q 2297 -581 2036 -812 
Q 1775 -1044 997 -1044 
L 800 -1044 
L 800 -594 
z
" transform="scale(0.015625)"/>
        <path id="DejaVuSans-7c" d="M 1344 4891 
L 1344 -1509 
L 813 -1509 
L 813 4891 
L 1344 4891 
z
" transform="scale(0.015625)"/>
       </defs>
       <use xlink:href="#DejaVuSans-34"/>
       <use xlink:href="#DejaVuSans-78" transform="translate(63.623047 0)"/>
       <use xlink:href="#DejaVuSans-5e" transform="translate(122.802734 0)"/>
       <use xlink:href="#DejaVuSans-32" transform="translate(206.591797 0)"/>
       <use xlink:href="#DejaVuSans-20" transform="translate(270.214844 0)"/>
       <use xlink:href="#DejaVuSans-7b" transform="translate(302.001953 0)"/>
       <use xlink:href="#DejaVuSans-5b" transform="translate(365.625 0)"/>
       <use xlink:href="#DejaVuSans-30" transform="translate(404.638672 0)"/>
       <use xlink:href="#DejaVuSans-2c" transform="translate(468.261719 0)"/>
       <use xlink:href="#DejaVuSans-30" transform="translate(500.048828 0)"/>
       <use xlink:href="#DejaVuSans-2e" transform="translate(563.671875 0)"/>
       <use xlink:href="#DejaVuSans-35" transform="translate(595.458984 0)"/>
       <use xlink:href="#DejaVuSans-5d" transform="translate(659.082031 0)"/>
       <use xlink:href="#DejaVuSans-7d" transform="translate(698.095703 0)"/>
       <use xlink:href="#DejaVuSans-20" transform="translate(761.71875 0)"/>
       <use xlink:href="#DejaVuSans-7c" transform="translate(793.505859 0)"/>
       <use xlink:href="#DejaVuSans-7c" transform="translate(827.197266 0)"/>
       <use xlink:href="#DejaVuSans-20" transform="translate(860.888672 0)"/>
       <use xlink:href="#DejaVuSans-34" transform="translate(892.675781 0)"/>
       <use xlink:href="#DejaVuSans-78" transform="translate(956.298828 0)"/>
       <use xlink:href="#DejaVuSans-2d" transform="translate(1015.478516 0)"/>
       <use xlink:href="#DejaVuSans-31" transform="translate(1051.5625 0)"/>
       <use xlink:href="#DejaVuSans-20" transform="translate(1115.185547 0)"/>
       <use xlink:href="#DejaVuSans-7b" transform="translate(1146.972656 0)"/>
       <use xlink:href="#DejaVuSans-5b" transform="translate(1210.595703 0)"/>
       <use xlink:href="#DejaVuSans-30" transform="translate(1249.609375 0)"/>
       <use xlink:href="#DejaVuSans-2e" transform="translate(1313.232422 0)"/>
       <use xlink:href="#DejaVuSans-35" transform="translate(1345.019531 0)"/>
       <use xlink:href="#DejaVuSans-2c" transform="translate(1408.642578 0)"/>
       <use xlink:href="#DejaVuSans-31" transform="translate(1440.429688 0)"/>
       <use xlink:href="#DejaVuSans-5d" transform="translate(1504.052734 0)"/>
       <use xlink:href="#DejaVuSans-7d" transform="translate(1543.066406 0)"/>
      </g>
     </g>
    </g>
   </g>
   <g id="matplotlib.axis_2">
    <g id="ytick_1">
     <g id="line2d_12">
      <defs>
       <path id="ma25124b94a" d="M 0 0 
L -3.5 0 
" style="stroke: #000000; stroke-width: 0.8"/>
      </defs>
      <g>
       <use xlink:href="#ma25124b94a" x="51.378125" y="265.329031" style="stroke: #000000; stroke-width: 0.8"/>
      </g>
     </g>
     <g id="text_12">
      <!-- $\mathdefault{10^{-7}}$ -->
      <g transform="translate(20.878125 269.12825) scale(0.1 -0.1)">
       <defs>
        <path id="DejaVuSans-2212" d="M 678 2272 
L 4684 2272 
L 4684 1741 
L 678 1741 
L 678 2272 
z
" transform="scale(0.015625)"/>
       </defs>
       <use xlink:href="#DejaVuSans-31" transform="translate(0 0.684375)"/>
       <use xlink:href="#DejaVuSans-30" transform="translate(63.623047 0.684375)"/>
       <use xlink:href="#DejaVuSans-2212" transform="translate(128.203125 38.965625) scale(0.7)"/>
       <use xlink:href="#DejaVuSans-37" transform="translate(186.855469 38.965625) scale(0.7)"/>
      </g>
     </g>
    </g>
    <g id="ytick_2">
     <g id="line2d_13">
      <g>
       <use xlink:href="#ma25124b94a" x="51.378125" y="230.613187" style="stroke: #000000; stroke-width: 0.8"/>
      </g>
     </g>
     <g id="text_13">
      <!-- $\mathdefault{10^{-6}}$ -->
      <g transform="translate(20.878125 234.412406) scale(0.1 -0.1)">
       <use xlink:href="#DejaVuSans-31" transform="translate(0 0.765625)"/>
       <use xlink:href="#DejaVuSans-30" transform="translate(63.623047 0.765625)"/>
       <use xlink:href="#DejaVuSans-2212" transform="translate(128.203125 39.046875) scale(0.7)"/>
       <use xlink:href="#DejaVuSans-36" transform="translate(186.855469 39.046875) scale(0.7)"/>
      </g>
     </g>
    </g>
    <g id="ytick_3">
     <g id="line2d_14">
      <g>
       <use xlink:href="#ma25124b94a" x="51.378125" y="195.897344" style="stroke: #000000; stroke-width: 0.8"/>
      </g>
     </g>
     <g id="text_14">
      <!-- $\mathdefault{10^{-5}}$ -->
      <g transform="translate(20.878125 199.696562) scale(0.1 -0.1)">
       <use xlink:href="#DejaVuSans-31" transform="translate(0 0.684375)"/>
       <use xlink:href="#DejaVuSans-30" transform="translate(63.623047 0.684375)"/>
       <use xlink:href="#DejaVuSans-2212" transform="translate(128.203125 38.965625) scale(0.7)"/>
       <use xlink:href="#DejaVuSans-35" transform="translate(186.855469 38.965625) scale(0.7)"/>
      </g>
     </g>
    </g>
    <g id="ytick_4">
     <g id="line2d_15">
      <g>
       <use xlink:href="#ma25124b94a" x="51.378125" y="161.1815" style="stroke: #000000; stroke-width: 0.8"/>
      </g>
     </g>
     <g id="text_15">
      <!-- $\mathdefault{10^{-4}}$ -->
      <g transform="translate(20.878125 164.980719) scale(0.1 -0.1)">
       <use xlink:href="#DejaVuSans-31" transform="translate(0 0.684375)"/>
       <use xlink:href="#DejaVuSans-30" transform="translate(63.623047 0.684375)"/>
       <use xlink:href="#DejaVuSans-2212" transform="translate(128.203125 38.965625) scale(0.7)"/>
       <use xlink:href="#DejaVuSans-34" transform="translate(186.855469 38.965625) scale(0.7)"/>
      </g>
     </g>
    </g>
    <g id="ytick_5">
     <g id="line2d_16">
      <g>
       <use xlink:href="#ma25124b94a" x="51.378125" y="126.465656" style="stroke: #000000; stroke-width: 0.8"/>
      </g>
     </g>
     <g id="text_16">
      <!-- $\mathdefault{10^{-3}}$ -->
      <g transform="translate(20.878125 130.264875) scale(0.1 -0.1)">
       <use xlink:href="#DejaVuSans-31" transform="translate(0 0.765625)"/>
       <use xlink:href="#DejaVuSans-30" transform="translate(63.623047 0.765625)"/>
       <use xlink:href="#DejaVuSans-2212" transform="translate(128.203125 39.046875) scale(0.7)"/>
       <use xlink:href="#DejaVuSans-33" transform="translate(186.855469 39.046875) scale(0.7)"/>
      </g>
     </g>
    </g>
    <g id="ytick_6">
     <g id="line2d_17">
      <g>
       <use xlink:href="#ma25124b94a" x="51.378125" y="91.749812" style="stroke: #000000; stroke-width: 0.8"/>
      </g>
     </g>
     <g id="text_17">
      <!-- $\mathdefault{10^{-2}}$ -->
      <g transform="translate(20.878125 95.549031) scale(0.1 -0.1)">
       <use xlink:href="#DejaVuSans-31" transform="translate(0 0.765625)"/>
       <use xlink:href="#DejaVuSans-30" transform="translate(63.623047 0.765625)"/>
       <use xlink:href="#DejaVuSans-2212" transform="translate(128.203125 39.046875) scale(0.7)"/>
       <use xlink:href="#DejaVuSans-32" transform="translate(186.855469 39.046875) scale(0.7)"/>
      </g>
     </g>
    </g>
    <g id="ytick_7">
     <g id="line2d_18">
      <g>
       <use xlink:href="#ma25124b94a" x="51.378125" y="57.033969" style="stroke: #000000; stroke-width: 0.8"/>
      </g>
     </g>
     <g id="text_18">
      <!-- $\mathdefault{10^{-1}}$ -->
      <g transform="translate(20.878125 60.833187) scale(0.1 -0.1)">
       <use xlink:href="#DejaVuSans-31" transform="translate(0 0.684375)"/>
       <use xlink:href="#DejaVuSans-30" transform="translate(63.623047 0.684375)"/>
       <use xlink:href="#DejaVuSans-2212" transform="translate(128.203125 38.965625) scale(0.7)"/>
       <use xlink:href="#DejaVuSans-31" transform="translate(186.855469 38.965625) scale(0.7)"/>
      </g>
     </g>
    </g>
    <g id="ytick_8">
     <g id="line2d_19">
      <g>
       <use xlink:href="#ma25124b94a" x="51.378125" y="22.318125" style="stroke: #000000; stroke-width: 0.8"/>
      </g>
     </g>
     <g id="text_19">
      <!-- $\mathdefault{10^{0}}$ -->
      <g transform="translate(26.778125 26.117344) scale(0.1 -0.1)">
       <use xlink:href="#DejaVuSans-31" transform="translate(0 0.765625)"/>
       <use xlink:href="#DejaVuSans-30" transform="translate(63.623047 0.765625)"/>
       <use xlink:href="#DejaVuSans-30" transform="translate(128.203125 39.046875) scale(0.7)"/>
      </g>
     </g>
    </g>
    <g id="ytick_9">
     <g id="line2d_20">
      <defs>
       <path id="m7e362aacda" d="M 0 0 
L -2 0 
" style="stroke: #000000; stroke-width: 0.6"/>
      </defs>
      <g>
       <use xlink:href="#m7e362aacda" x="51.378125" y="289.594365" style="stroke: #000000; stroke-width: 0.6"/>
      </g>
     </g>
    </g>
    <g id="ytick_10">
     <g id="line2d_21">
      <g>
       <use xlink:href="#m7e362aacda" x="51.378125" y="283.481208" style="stroke: #000000; stroke-width: 0.6"/>
      </g>
     </g>
    </g>
    <g id="ytick_11">
     <g id="line2d_22">
      <g>
       <use xlink:href="#m7e362aacda" x="51.378125" y="279.143854" style="stroke: #000000; stroke-width: 0.6"/>
      </g>
     </g>
    </g>
    <g id="ytick_12">
     <g id="line2d_23">
      <g>
       <use xlink:href="#m7e362aacda" x="51.378125" y="275.779541" style="stroke: #000000; stroke-width: 0.6"/>
      </g>
     </g>
    </g>
    <g id="ytick_13">
     <g id="line2d_24">
      <g>
       <use xlink:href="#m7e362aacda" x="51.378125" y="273.030698" style="stroke: #000000; stroke-width: 0.6"/>
      </g>
     </g>
    </g>
    <g id="ytick_14">
     <g id="line2d_25">
      <g>
       <use xlink:href="#m7e362aacda" x="51.378125" y="270.706583" style="stroke: #000000; stroke-width: 0.6"/>
      </g>
     </g>
    </g>
    <g id="ytick_15">
     <g id="line2d_26">
      <g>
       <use xlink:href="#m7e362aacda" x="51.378125" y="268.693344" style="stroke: #000000; stroke-width: 0.6"/>
      </g>
     </g>
    </g>
    <g id="ytick_16">
     <g id="line2d_27">
      <g>
       <use xlink:href="#m7e362aacda" x="51.378125" y="266.917541" style="stroke: #000000; stroke-width: 0.6"/>
      </g>
     </g>
    </g>
    <g id="ytick_17">
     <g id="line2d_28">
      <g>
       <use xlink:href="#m7e362aacda" x="51.378125" y="254.878521" style="stroke: #000000; stroke-width: 0.6"/>
      </g>
     </g>
    </g>
    <g id="ytick_18">
     <g id="line2d_29">
      <g>
       <use xlink:href="#m7e362aacda" x="51.378125" y="248.765364" style="stroke: #000000; stroke-width: 0.6"/>
      </g>
     </g>
    </g>
    <g id="ytick_19">
     <g id="line2d_30">
      <g>
       <use xlink:href="#m7e362aacda" x="51.378125" y="244.428011" style="stroke: #000000; stroke-width: 0.6"/>
      </g>
     </g>
    </g>
    <g id="ytick_20">
     <g id="line2d_31">
      <g>
       <use xlink:href="#m7e362aacda" x="51.378125" y="241.063698" style="stroke: #000000; stroke-width: 0.6"/>
      </g>
     </g>
    </g>
    <g id="ytick_21">
     <g id="line2d_32">
      <g>
       <use xlink:href="#m7e362aacda" x="51.378125" y="238.314854" style="stroke: #000000; stroke-width: 0.6"/>
      </g>
     </g>
    </g>
    <g id="ytick_22">
     <g id="line2d_33">
      <g>
       <use xlink:href="#m7e362aacda" x="51.378125" y="235.99074" style="stroke: #000000; stroke-width: 0.6"/>
      </g>
     </g>
    </g>
    <g id="ytick_23">
     <g id="line2d_34">
      <g>
       <use xlink:href="#m7e362aacda" x="51.378125" y="233.9775" style="stroke: #000000; stroke-width: 0.6"/>
      </g>
     </g>
    </g>
    <g id="ytick_24">
     <g id="line2d_35">
      <g>
       <use xlink:href="#m7e362aacda" x="51.378125" y="232.201697" style="stroke: #000000; stroke-width: 0.6"/>
      </g>
     </g>
    </g>
    <g id="ytick_25">
     <g id="line2d_36">
      <g>
       <use xlink:href="#m7e362aacda" x="51.378125" y="220.162677" style="stroke: #000000; stroke-width: 0.6"/>
      </g>
     </g>
    </g>
    <g id="ytick_26">
     <g id="line2d_37">
      <g>
       <use xlink:href="#m7e362aacda" x="51.378125" y="214.04952" style="stroke: #000000; stroke-width: 0.6"/>
      </g>
     </g>
    </g>
    <g id="ytick_27">
     <g id="line2d_38">
      <g>
       <use xlink:href="#m7e362aacda" x="51.378125" y="209.712167" style="stroke: #000000; stroke-width: 0.6"/>
      </g>
     </g>
    </g>
    <g id="ytick_28">
     <g id="line2d_39">
      <g>
       <use xlink:href="#m7e362aacda" x="51.378125" y="206.347854" style="stroke: #000000; stroke-width: 0.6"/>
      </g>
     </g>
    </g>
    <g id="ytick_29">
     <g id="line2d_40">
      <g>
       <use xlink:href="#m7e362aacda" x="51.378125" y="203.59901" style="stroke: #000000; stroke-width: 0.6"/>
      </g>
     </g>
    </g>
    <g id="ytick_30">
     <g id="line2d_41">
      <g>
       <use xlink:href="#m7e362aacda" x="51.378125" y="201.274896" style="stroke: #000000; stroke-width: 0.6"/>
      </g>
     </g>
    </g>
    <g id="ytick_31">
     <g id="line2d_42">
      <g>
       <use xlink:href="#m7e362aacda" x="51.378125" y="199.261657" style="stroke: #000000; stroke-width: 0.6"/>
      </g>
     </g>
    </g>
    <g id="ytick_32">
     <g id="line2d_43">
      <g>
       <use xlink:href="#m7e362aacda" x="51.378125" y="197.485854" style="stroke: #000000; stroke-width: 0.6"/>
      </g>
     </g>
    </g>
    <g id="ytick_33">
     <g id="line2d_44">
      <g>
       <use xlink:href="#m7e362aacda" x="51.378125" y="185.446833" style="stroke: #000000; stroke-width: 0.6"/>
      </g>
     </g>
    </g>
    <g id="ytick_34">
     <g id="line2d_45">
      <g>
       <use xlink:href="#m7e362aacda" x="51.378125" y="179.333677" style="stroke: #000000; stroke-width: 0.6"/>
      </g>
     </g>
    </g>
    <g id="ytick_35">
     <g id="line2d_46">
      <g>
       <use xlink:href="#m7e362aacda" x="51.378125" y="174.996323" style="stroke: #000000; stroke-width: 0.6"/>
      </g>
     </g>
    </g>
    <g id="ytick_36">
     <g id="line2d_47">
      <g>
       <use xlink:href="#m7e362aacda" x="51.378125" y="171.63201" style="stroke: #000000; stroke-width: 0.6"/>
      </g>
     </g>
    </g>
    <g id="ytick_37">
     <g id="line2d_48">
      <g>
       <use xlink:href="#m7e362aacda" x="51.378125" y="168.883166" style="stroke: #000000; stroke-width: 0.6"/>
      </g>
     </g>
    </g>
    <g id="ytick_38">
     <g id="line2d_49">
      <g>
       <use xlink:href="#m7e362aacda" x="51.378125" y="166.559052" style="stroke: #000000; stroke-width: 0.6"/>
      </g>
     </g>
    </g>
    <g id="ytick_39">
     <g id="line2d_50">
      <g>
       <use xlink:href="#m7e362aacda" x="51.378125" y="164.545813" style="stroke: #000000; stroke-width: 0.6"/>
      </g>
     </g>
    </g>
    <g id="ytick_40">
     <g id="line2d_51">
      <g>
       <use xlink:href="#m7e362aacda" x="51.378125" y="162.77001" style="stroke: #000000; stroke-width: 0.6"/>
      </g>
     </g>
    </g>
    <g id="ytick_41">
     <g id="line2d_52">
      <g>
       <use xlink:href="#m7e362aacda" x="51.378125" y="150.73099" style="stroke: #000000; stroke-width: 0.6"/>
      </g>
     </g>
    </g>
    <g id="ytick_42">
     <g id="line2d_53">
      <g>
       <use xlink:href="#m7e362aacda" x="51.378125" y="144.617833" style="stroke: #000000; stroke-width: 0.6"/>
      </g>
     </g>
    </g>
    <g id="ytick_43">
     <g id="line2d_54">
      <g>
       <use xlink:href="#m7e362aacda" x="51.378125" y="140.280479" style="stroke: #000000; stroke-width: 0.6"/>
      </g>
     </g>
    </g>
    <g id="ytick_44">
     <g id="line2d_55">
      <g>
       <use xlink:href="#m7e362aacda" x="51.378125" y="136.916166" style="stroke: #000000; stroke-width: 0.6"/>
      </g>
     </g>
    </g>
    <g id="ytick_45">
     <g id="line2d_56">
      <g>
       <use xlink:href="#m7e362aacda" x="51.378125" y="134.167323" style="stroke: #000000; stroke-width: 0.6"/>
      </g>
     </g>
    </g>
    <g id="ytick_46">
     <g id="line2d_57">
      <g>
       <use xlink:href="#m7e362aacda" x="51.378125" y="131.843208" style="stroke: #000000; stroke-width: 0.6"/>
      </g>
     </g>
    </g>
    <g id="ytick_47">
     <g id="line2d_58">
      <g>
       <use xlink:href="#m7e362aacda" x="51.378125" y="129.829969" style="stroke: #000000; stroke-width: 0.6"/>
      </g>
     </g>
    </g>
    <g id="ytick_48">
     <g id="line2d_59">
      <g>
       <use xlink:href="#m7e362aacda" x="51.378125" y="128.054166" style="stroke: #000000; stroke-width: 0.6"/>
      </g>
     </g>
    </g>
    <g id="ytick_49">
     <g id="line2d_60">
      <g>
       <use xlink:href="#m7e362aacda" x="51.378125" y="116.015146" style="stroke: #000000; stroke-width: 0.6"/>
      </g>
     </g>
    </g>
    <g id="ytick_50">
     <g id="line2d_61">
      <g>
       <use xlink:href="#m7e362aacda" x="51.378125" y="109.901989" style="stroke: #000000; stroke-width: 0.6"/>
      </g>
     </g>
    </g>
    <g id="ytick_51">
     <g id="line2d_62">
      <g>
       <use xlink:href="#m7e362aacda" x="51.378125" y="105.564636" style="stroke: #000000; stroke-width: 0.6"/>
      </g>
     </g>
    </g>
    <g id="ytick_52">
     <g id="line2d_63">
      <g>
       <use xlink:href="#m7e362aacda" x="51.378125" y="102.200323" style="stroke: #000000; stroke-width: 0.6"/>
      </g>
     </g>
    </g>
    <g id="ytick_53">
     <g id="line2d_64">
      <g>
       <use xlink:href="#m7e362aacda" x="51.378125" y="99.451479" style="stroke: #000000; stroke-width: 0.6"/>
      </g>
     </g>
    </g>
    <g id="ytick_54">
     <g id="line2d_65">
      <g>
       <use xlink:href="#m7e362aacda" x="51.378125" y="97.127365" style="stroke: #000000; stroke-width: 0.6"/>
      </g>
     </g>
    </g>
    <g id="ytick_55">
     <g id="line2d_66">
      <g>
       <use xlink:href="#m7e362aacda" x="51.378125" y="95.114125" style="stroke: #000000; stroke-width: 0.6"/>
      </g>
     </g>
    </g>
    <g id="ytick_56">
     <g id="line2d_67">
      <g>
       <use xlink:href="#m7e362aacda" x="51.378125" y="93.338322" style="stroke: #000000; stroke-width: 0.6"/>
      </g>
     </g>
    </g>
    <g id="ytick_57">
     <g id="line2d_68">
      <g>
       <use xlink:href="#m7e362aacda" x="51.378125" y="81.299302" style="stroke: #000000; stroke-width: 0.6"/>
      </g>
     </g>
    </g>
    <g id="ytick_58">
     <g id="line2d_69">
      <g>
       <use xlink:href="#m7e362aacda" x="51.378125" y="75.186146" style="stroke: #000000; stroke-width: 0.6"/>
      </g>
     </g>
    </g>
    <g id="ytick_59">
     <g id="line2d_70">
      <g>
       <use xlink:href="#m7e362aacda" x="51.378125" y="70.848792" style="stroke: #000000; stroke-width: 0.6"/>
      </g>
     </g>
    </g>
    <g id="ytick_60">
     <g id="line2d_71">
      <g>
       <use xlink:href="#m7e362aacda" x="51.378125" y="67.484479" style="stroke: #000000; stroke-width: 0.6"/>
      </g>
     </g>
    </g>
    <g id="ytick_61">
     <g id="line2d_72">
      <g>
       <use xlink:href="#m7e362aacda" x="51.378125" y="64.735635" style="stroke: #000000; stroke-width: 0.6"/>
      </g>
     </g>
    </g>
    <g id="ytick_62">
     <g id="line2d_73">
      <g>
       <use xlink:href="#m7e362aacda" x="51.378125" y="62.411521" style="stroke: #000000; stroke-width: 0.6"/>
      </g>
     </g>
    </g>
    <g id="ytick_63">
     <g id="line2d_74">
      <g>
       <use xlink:href="#m7e362aacda" x="51.378125" y="60.398282" style="stroke: #000000; stroke-width: 0.6"/>
      </g>
     </g>
    </g>
    <g id="ytick_64">
     <g id="line2d_75">
      <g>
       <use xlink:href="#m7e362aacda" x="51.378125" y="58.622479" style="stroke: #000000; stroke-width: 0.6"/>
      </g>
     </g>
    </g>
    <g id="ytick_65">
     <g id="line2d_76">
      <g>
       <use xlink:href="#m7e362aacda" x="51.378125" y="46.583458" style="stroke: #000000; stroke-width: 0.6"/>
      </g>
     </g>
    </g>
    <g id="ytick_66">
     <g id="line2d_77">
      <g>
       <use xlink:href="#m7e362aacda" x="51.378125" y="40.470302" style="stroke: #000000; stroke-width: 0.6"/>
      </g>
     </g>
    </g>
    <g id="ytick_67">
     <g id="line2d_78">
      <g>
       <use xlink:href="#m7e362aacda" x="51.378125" y="36.132948" style="stroke: #000000; stroke-width: 0.6"/>
      </g>
     </g>
    </g>
    <g id="ytick_68">
     <g id="line2d_79">
      <g>
       <use xlink:href="#m7e362aacda" x="51.378125" y="32.768635" style="stroke: #000000; stroke-width: 0.6"/>
      </g>
     </g>
    </g>
    <g id="ytick_69">
     <g id="line2d_80">
      <g>
       <use xlink:href="#m7e362aacda" x="51.378125" y="30.019792" style="stroke: #000000; stroke-width: 0.6"/>
      </g>
     </g>
    </g>
    <g id="ytick_70">
     <g id="line2d_81">
      <g>
       <use xlink:href="#m7e362aacda" x="51.378125" y="27.695677" style="stroke: #000000; stroke-width: 0.6"/>
      </g>
     </g>
    </g>
    <g id="ytick_71">
     <g id="line2d_82">
      <g>
       <use xlink:href="#m7e362aacda" x="51.378125" y="25.682438" style="stroke: #000000; stroke-width: 0.6"/>
      </g>
     </g>
    </g>
    <g id="ytick_72">
     <g id="line2d_83">
      <g>
       <use xlink:href="#m7e362aacda" x="51.378125" y="23.906635" style="stroke: #000000; stroke-width: 0.6"/>
      </g>
     </g>
    </g>
    <g id="text_20">
     <!-- NMSE -->
     <g transform="translate(14.798438 170.501497) rotate(-90) scale(0.1 -0.1)">
      <defs>
       <path id="DejaVuSans-4e" d="M 628 4666 
L 1478 4666 
L 3547 763 
L 3547 4666 
L 4159 4666 
L 4159 0 
L 3309 0 
L 1241 3903 
L 1241 0 
L 628 0 
L 628 4666 
z
" transform="scale(0.015625)"/>
       <path id="DejaVuSans-4d" d="M 628 4666 
L 1569 4666 
L 2759 1491 
L 3956 4666 
L 4897 4666 
L 4897 0 
L 4281 0 
L 4281 4097 
L 3078 897 
L 2444 897 
L 1241 4097 
L 1241 0 
L 628 0 
L 628 4666 
z
" transform="scale(0.015625)"/>
       <path id="DejaVuSans-53" d="M 3425 4513 
L 3425 3897 
Q 3066 4069 2747 4153 
Q 2428 4238 2131 4238 
Q 1616 4238 1336 4038 
Q 1056 3838 1056 3469 
Q 1056 3159 1242 3001 
Q 1428 2844 1947 2747 
L 2328 2669 
Q 3034 2534 3370 2195 
Q 3706 1856 3706 1288 
Q 3706 609 3251 259 
Q 2797 -91 1919 -91 
Q 1588 -91 1214 -16 
Q 841 59 441 206 
L 441 856 
Q 825 641 1194 531 
Q 1563 422 1919 422 
Q 2459 422 2753 634 
Q 3047 847 3047 1241 
Q 3047 1584 2836 1778 
Q 2625 1972 2144 2069 
L 1759 2144 
Q 1053 2284 737 2584 
Q 422 2884 422 3419 
Q 422 4038 858 4394 
Q 1294 4750 2059 4750 
Q 2388 4750 2728 4690 
Q 3069 4631 3425 4513 
z
" transform="scale(0.015625)"/>
       <path id="DejaVuSans-45" d="M 628 4666 
L 3578 4666 
L 3578 4134 
L 1259 4134 
L 1259 2753 
L 3481 2753 
L 3481 2222 
L 1259 2222 
L 1259 531 
L 3634 531 
L 3634 0 
L 628 0 
L 628 4666 
z
" transform="scale(0.015625)"/>
      </defs>
      <use xlink:href="#DejaVuSans-4e"/>
      <use xlink:href="#DejaVuSans-4d" transform="translate(74.804688 0)"/>
      <use xlink:href="#DejaVuSans-53" transform="translate(161.083984 0)"/>
      <use xlink:href="#DejaVuSans-45" transform="translate(224.560547 0)"/>
     </g>
    </g>
   </g>
   <g id="patch_91">
    <path d="M 51.378125 289.908307 
L 51.378125 22.318125 
" style="fill: none; stroke: #000000; stroke-width: 0.8; stroke-linejoin: miter; stroke-linecap: square"/>
   </g>
   <g id="patch_92">
    <path d="M 848.562779 289.908307 
L 848.562779 22.318125 
" style="fill: none; stroke: #000000; stroke-width: 0.8; stroke-linejoin: miter; stroke-linecap: square"/>
   </g>
   <g id="patch_93">
    <path d="M 51.378125 289.908307 
L 848.562779 289.908307 
" style="fill: none; stroke: #000000; stroke-width: 0.8; stroke-linejoin: miter; stroke-linecap: square"/>
   </g>
   <g id="patch_94">
    <path d="M 51.378125 22.318125 
L 848.562779 22.318125 
" style="fill: none; stroke: #000000; stroke-width: 0.8; stroke-linejoin: miter; stroke-linecap: square"/>
   </g>
   <g id="text_21">
    <!-- NMSE Comparison -->
    <g transform="translate(394.873577 16.318125) scale(0.12 -0.12)">
     <defs>
      <path id="DejaVuSans-43" d="M 4122 4306 
L 4122 3641 
Q 3803 3938 3442 4084 
Q 3081 4231 2675 4231 
Q 1875 4231 1450 3742 
Q 1025 3253 1025 2328 
Q 1025 1406 1450 917 
Q 1875 428 2675 428 
Q 3081 428 3442 575 
Q 3803 722 4122 1019 
L 4122 359 
Q 3791 134 3420 21 
Q 3050 -91 2638 -91 
Q 1578 -91 968 557 
Q 359 1206 359 2328 
Q 359 3453 968 4101 
Q 1578 4750 2638 4750 
Q 3056 4750 3426 4639 
Q 3797 4528 4122 4306 
z
" transform="scale(0.015625)"/>
     </defs>
     <use xlink:href="#DejaVuSans-4e"/>
     <use xlink:href="#DejaVuSans-4d" transform="translate(74.804688 0)"/>
     <use xlink:href="#DejaVuSans-53" transform="translate(161.083984 0)"/>
     <use xlink:href="#DejaVuSans-45" transform="translate(224.560547 0)"/>
     <use xlink:href="#DejaVuSans-20" transform="translate(287.744141 0)"/>
     <use xlink:href="#DejaVuSans-43" transform="translate(319.53125 0)"/>
     <use xlink:href="#DejaVuSans-6f" transform="translate(389.355469 0)"/>
     <use xlink:href="#DejaVuSans-6d" transform="translate(450.537109 0)"/>
     <use xlink:href="#DejaVuSans-70" transform="translate(547.949219 0)"/>
     <use xlink:href="#DejaVuSans-61" transform="translate(611.425781 0)"/>
     <use xlink:href="#DejaVuSans-72" transform="translate(672.705078 0)"/>
     <use xlink:href="#DejaVuSans-69" transform="translate(713.818359 0)"/>
     <use xlink:href="#DejaVuSans-73" transform="translate(741.601562 0)"/>
     <use xlink:href="#DejaVuSans-6f" transform="translate(793.701172 0)"/>
     <use xlink:href="#DejaVuSans-6e" transform="translate(854.882812 0)"/>
    </g>
   </g>
   <g id="legend_1">
    <g id="patch_95">
     <path d="M 58.378125 103.70875 
L 354.784375 103.70875 
Q 356.784375 103.70875 356.784375 101.70875 
L 356.784375 29.318125 
Q 356.784375 27.318125 354.784375 27.318125 
L 58.378125 27.318125 
Q 56.378125 27.318125 56.378125 29.318125 
L 56.378125 101.70875 
Q 56.378125 103.70875 58.378125 103.70875 
z
" style="fill: #ffffff; opacity: 0.8; stroke: #cccccc; stroke-linejoin: miter"/>
    </g>
    <g id="text_22">
     <!-- Methods -->
     <g transform="translate(185.223438 38.916562) scale(0.1 -0.1)">
      <defs>
       <path id="DejaVuSans-74" d="M 1172 4494 
L 1172 3500 
L 2356 3500 
L 2356 3053 
L 1172 3053 
L 1172 1153 
Q 1172 725 1289 603 
Q 1406 481 1766 481 
L 2356 481 
L 2356 0 
L 1766 0 
Q 1100 0 847 248 
Q 594 497 594 1153 
L 594 3053 
L 172 3053 
L 172 3500 
L 594 3500 
L 594 4494 
L 1172 4494 
z
" transform="scale(0.015625)"/>
       <path id="DejaVuSans-68" d="M 3513 2113 
L 3513 0 
L 2938 0 
L 2938 2094 
Q 2938 2591 2744 2837 
Q 2550 3084 2163 3084 
Q 1697 3084 1428 2787 
Q 1159 2491 1159 1978 
L 1159 0 
L 581 0 
L 581 4863 
L 1159 4863 
L 1159 2956 
Q 1366 3272 1645 3428 
Q 1925 3584 2291 3584 
Q 2894 3584 3203 3211 
Q 3513 2838 3513 2113 
z
" transform="scale(0.015625)"/>
      </defs>
      <use xlink:href="#DejaVuSans-4d"/>
      <use xlink:href="#DejaVuSans-65" transform="translate(86.279297 0)"/>
      <use xlink:href="#DejaVuSans-74" transform="translate(147.802734 0)"/>
      <use xlink:href="#DejaVuSans-68" transform="translate(187.011719 0)"/>
      <use xlink:href="#DejaVuSans-6f" transform="translate(250.390625 0)"/>
      <use xlink:href="#DejaVuSans-64" transform="translate(311.572266 0)"/>
      <use xlink:href="#DejaVuSans-73" transform="translate(375.048828 0)"/>
     </g>
    </g>
    <g id="patch_96">
     <path d="M 60.378125 53.594687 
L 80.378125 53.594687 
L 80.378125 46.594687 
L 60.378125 46.594687 
z
" style="fill: #1f77b4"/>
    </g>
    <g id="text_23">
     <!-- Piecewise linear -->
     <g transform="translate(88.378125 53.594687) scale(0.1 -0.1)">
      <defs>
       <path id="DejaVuSans-50" d="M 1259 4147 
L 1259 2394 
L 2053 2394 
Q 2494 2394 2734 2622 
Q 2975 2850 2975 3272 
Q 2975 3691 2734 3919 
Q 2494 4147 2053 4147 
L 1259 4147 
z
M 628 4666 
L 2053 4666 
Q 2838 4666 3239 4311 
Q 3641 3956 3641 3272 
Q 3641 2581 3239 2228 
Q 2838 1875 2053 1875 
L 1259 1875 
L 1259 0 
L 628 0 
L 628 4666 
z
" transform="scale(0.015625)"/>
       <path id="DejaVuSans-63" d="M 3122 3366 
L 3122 2828 
Q 2878 2963 2633 3030 
Q 2388 3097 2138 3097 
Q 1578 3097 1268 2742 
Q 959 2388 959 1747 
Q 959 1106 1268 751 
Q 1578 397 2138 397 
Q 2388 397 2633 464 
Q 2878 531 3122 666 
L 3122 134 
Q 2881 22 2623 -34 
Q 2366 -91 2075 -91 
Q 1284 -91 818 406 
Q 353 903 353 1747 
Q 353 2603 823 3093 
Q 1294 3584 2113 3584 
Q 2378 3584 2631 3529 
Q 2884 3475 3122 3366 
z
" transform="scale(0.015625)"/>
       <path id="DejaVuSans-77" d="M 269 3500 
L 844 3500 
L 1563 769 
L 2278 3500 
L 2956 3500 
L 3675 769 
L 4391 3500 
L 4966 3500 
L 4050 0 
L 3372 0 
L 2619 2869 
L 1863 0 
L 1184 0 
L 269 3500 
z
" transform="scale(0.015625)"/>
      </defs>
      <use xlink:href="#DejaVuSans-50"/>
      <use xlink:href="#DejaVuSans-69" transform="translate(58.052734 0)"/>
      <use xlink:href="#DejaVuSans-65" transform="translate(85.835938 0)"/>
      <use xlink:href="#DejaVuSans-63" transform="translate(147.359375 0)"/>
      <use xlink:href="#DejaVuSans-65" transform="translate(202.339844 0)"/>
      <use xlink:href="#DejaVuSans-77" transform="translate(263.863281 0)"/>
      <use xlink:href="#DejaVuSans-69" transform="translate(345.650391 0)"/>
      <use xlink:href="#DejaVuSans-73" transform="translate(373.433594 0)"/>
      <use xlink:href="#DejaVuSans-65" transform="translate(425.533203 0)"/>
      <use xlink:href="#DejaVuSans-20" transform="translate(487.056641 0)"/>
      <use xlink:href="#DejaVuSans-6c" transform="translate(518.84375 0)"/>
      <use xlink:href="#DejaVuSans-69" transform="translate(546.626953 0)"/>
      <use xlink:href="#DejaVuSans-6e" transform="translate(574.410156 0)"/>
      <use xlink:href="#DejaVuSans-65" transform="translate(637.789062 0)"/>
      <use xlink:href="#DejaVuSans-61" transform="translate(699.3125 0)"/>
      <use xlink:href="#DejaVuSans-72" transform="translate(760.591797 0)"/>
     </g>
    </g>
    <g id="patch_97">
     <path d="M 60.378125 68.272812 
L 80.378125 68.272812 
L 80.378125 61.272812 
L 60.378125 61.272812 
z
" style="fill: #d62728"/>
    </g>
    <g id="text_24">
     <!-- Constrained Vandermonde -->
     <g transform="translate(88.378125 68.272812) scale(0.1 -0.1)">
      <defs>
       <path id="DejaVuSans-56" d="M 1831 0 
L 50 4666 
L 709 4666 
L 2188 738 
L 3669 4666 
L 4325 4666 
L 2547 0 
L 1831 0 
z
" transform="scale(0.015625)"/>
      </defs>
      <use xlink:href="#DejaVuSans-43"/>
      <use xlink:href="#DejaVuSans-6f" transform="translate(69.824219 0)"/>
      <use xlink:href="#DejaVuSans-6e" transform="translate(131.005859 0)"/>
      <use xlink:href="#DejaVuSans-73" transform="translate(194.384766 0)"/>
      <use xlink:href="#DejaVuSans-74" transform="translate(246.484375 0)"/>
      <use xlink:href="#DejaVuSans-72" transform="translate(285.693359 0)"/>
      <use xlink:href="#DejaVuSans-61" transform="translate(326.806641 0)"/>
      <use xlink:href="#DejaVuSans-69" transform="translate(388.085938 0)"/>
      <use xlink:href="#DejaVuSans-6e" transform="translate(415.869141 0)"/>
      <use xlink:href="#DejaVuSans-65" transform="translate(479.248047 0)"/>
      <use xlink:href="#DejaVuSans-64" transform="translate(540.771484 0)"/>
      <use xlink:href="#DejaVuSans-20" transform="translate(604.248047 0)"/>
      <use xlink:href="#DejaVuSans-56" transform="translate(636.035156 0)"/>
      <use xlink:href="#DejaVuSans-61" transform="translate(696.693359 0)"/>
      <use xlink:href="#DejaVuSans-6e" transform="translate(757.972656 0)"/>
      <use xlink:href="#DejaVuSans-64" transform="translate(821.351562 0)"/>
      <use xlink:href="#DejaVuSans-65" transform="translate(884.828125 0)"/>
      <use xlink:href="#DejaVuSans-72" transform="translate(946.351562 0)"/>
      <use xlink:href="#DejaVuSans-6d" transform="translate(985.714844 0)"/>
      <use xlink:href="#DejaVuSans-6f" transform="translate(1083.126953 0)"/>
      <use xlink:href="#DejaVuSans-6e" transform="translate(1144.308594 0)"/>
      <use xlink:href="#DejaVuSans-64" transform="translate(1207.6875 0)"/>
      <use xlink:href="#DejaVuSans-65" transform="translate(1271.164062 0)"/>
     </g>
    </g>
    <g id="patch_98">
     <path d="M 60.378125 82.950937 
L 80.378125 82.950937 
L 80.378125 75.950937 
L 60.378125 75.950937 
z
" style="fill: #e377c2"/>
    </g>
    <g id="text_25">
     <!-- Convex splines -->
     <g transform="translate(88.378125 82.950937) scale(0.1 -0.1)">
      <defs>
       <path id="DejaVuSans-76" d="M 191 3500 
L 800 3500 
L 1894 563 
L 2988 3500 
L 3597 3500 
L 2284 0 
L 1503 0 
L 191 3500 
z
" transform="scale(0.015625)"/>
      </defs>
      <use xlink:href="#DejaVuSans-43"/>
      <use xlink:href="#DejaVuSans-6f" transform="translate(69.824219 0)"/>
      <use xlink:href="#DejaVuSans-6e" transform="translate(131.005859 0)"/>
      <use xlink:href="#DejaVuSans-76" transform="translate(194.384766 0)"/>
      <use xlink:href="#DejaVuSans-65" transform="translate(253.564453 0)"/>
      <use xlink:href="#DejaVuSans-78" transform="translate(313.337891 0)"/>
      <use xlink:href="#DejaVuSans-20" transform="translate(372.517578 0)"/>
      <use xlink:href="#DejaVuSans-73" transform="translate(404.304688 0)"/>
      <use xlink:href="#DejaVuSans-70" transform="translate(456.404297 0)"/>
      <use xlink:href="#DejaVuSans-6c" transform="translate(519.880859 0)"/>
      <use xlink:href="#DejaVuSans-69" transform="translate(547.664062 0)"/>
      <use xlink:href="#DejaVuSans-6e" transform="translate(575.447266 0)"/>
      <use xlink:href="#DejaVuSans-65" transform="translate(638.826172 0)"/>
      <use xlink:href="#DejaVuSans-73" transform="translate(700.349609 0)"/>
     </g>
    </g>
    <g id="patch_99">
     <path d="M 60.378125 97.629062 
L 80.378125 97.629062 
L 80.378125 90.629062 
L 60.378125 90.629062 
z
" style="fill: #17becf"/>
    </g>
    <g id="text_26">
     <!-- Greedy lowballing absolutely monotonic polynomials -->
     <g transform="translate(88.378125 97.629062) scale(0.1 -0.1)">
      <defs>
       <path id="DejaVuSans-47" d="M 3809 666 
L 3809 1919 
L 2778 1919 
L 2778 2438 
L 4434 2438 
L 4434 434 
Q 4069 175 3628 42 
Q 3188 -91 2688 -91 
Q 1594 -91 976 548 
Q 359 1188 359 2328 
Q 359 3472 976 4111 
Q 1594 4750 2688 4750 
Q 3144 4750 3555 4637 
Q 3966 4525 4313 4306 
L 4313 3634 
Q 3963 3931 3569 4081 
Q 3175 4231 2741 4231 
Q 1884 4231 1454 3753 
Q 1025 3275 1025 2328 
Q 1025 1384 1454 906 
Q 1884 428 2741 428 
Q 3075 428 3337 486 
Q 3600 544 3809 666 
z
" transform="scale(0.015625)"/>
       <path id="DejaVuSans-79" d="M 2059 -325 
Q 1816 -950 1584 -1140 
Q 1353 -1331 966 -1331 
L 506 -1331 
L 506 -850 
L 844 -850 
Q 1081 -850 1212 -737 
Q 1344 -625 1503 -206 
L 1606 56 
L 191 3500 
L 800 3500 
L 1894 763 
L 2988 3500 
L 3597 3500 
L 2059 -325 
z
" transform="scale(0.015625)"/>
       <path id="DejaVuSans-62" d="M 3116 1747 
Q 3116 2381 2855 2742 
Q 2594 3103 2138 3103 
Q 1681 3103 1420 2742 
Q 1159 2381 1159 1747 
Q 1159 1113 1420 752 
Q 1681 391 2138 391 
Q 2594 391 2855 752 
Q 3116 1113 3116 1747 
z
M 1159 2969 
Q 1341 3281 1617 3432 
Q 1894 3584 2278 3584 
Q 2916 3584 3314 3078 
Q 3713 2572 3713 1747 
Q 3713 922 3314 415 
Q 2916 -91 2278 -91 
Q 1894 -91 1617 61 
Q 1341 213 1159 525 
L 1159 0 
L 581 0 
L 581 4863 
L 1159 4863 
L 1159 2969 
z
" transform="scale(0.015625)"/>
       <path id="DejaVuSans-67" d="M 2906 1791 
Q 2906 2416 2648 2759 
Q 2391 3103 1925 3103 
Q 1463 3103 1205 2759 
Q 947 2416 947 1791 
Q 947 1169 1205 825 
Q 1463 481 1925 481 
Q 2391 481 2648 825 
Q 2906 1169 2906 1791 
z
M 3481 434 
Q 3481 -459 3084 -895 
Q 2688 -1331 1869 -1331 
Q 1566 -1331 1297 -1286 
Q 1028 -1241 775 -1147 
L 775 -588 
Q 1028 -725 1275 -790 
Q 1522 -856 1778 -856 
Q 2344 -856 2625 -561 
Q 2906 -266 2906 331 
L 2906 616 
Q 2728 306 2450 153 
Q 2172 0 1784 0 
Q 1141 0 747 490 
Q 353 981 353 1791 
Q 353 2603 747 3093 
Q 1141 3584 1784 3584 
Q 2172 3584 2450 3431 
Q 2728 3278 2906 2969 
L 2906 3500 
L 3481 3500 
L 3481 434 
z
" transform="scale(0.015625)"/>
       <path id="DejaVuSans-75" d="M 544 1381 
L 544 3500 
L 1119 3500 
L 1119 1403 
Q 1119 906 1312 657 
Q 1506 409 1894 409 
Q 2359 409 2629 706 
Q 2900 1003 2900 1516 
L 2900 3500 
L 3475 3500 
L 3475 0 
L 2900 0 
L 2900 538 
Q 2691 219 2414 64 
Q 2138 -91 1772 -91 
Q 1169 -91 856 284 
Q 544 659 544 1381 
z
M 1991 3584 
L 1991 3584 
z
" transform="scale(0.015625)"/>
      </defs>
      <use xlink:href="#DejaVuSans-47"/>
      <use xlink:href="#DejaVuSans-72" transform="translate(77.490234 0)"/>
      <use xlink:href="#DejaVuSans-65" transform="translate(116.353516 0)"/>
      <use xlink:href="#DejaVuSans-65" transform="translate(177.876953 0)"/>
      <use xlink:href="#DejaVuSans-64" transform="translate(239.400391 0)"/>
      <use xlink:href="#DejaVuSans-79" transform="translate(302.876953 0)"/>
      <use xlink:href="#DejaVuSans-20" transform="translate(362.056641 0)"/>
      <use xlink:href="#DejaVuSans-6c" transform="translate(393.84375 0)"/>
      <use xlink:href="#DejaVuSans-6f" transform="translate(421.626953 0)"/>
      <use xlink:href="#DejaVuSans-77" transform="translate(482.808594 0)"/>
      <use xlink:href="#DejaVuSans-62" transform="translate(564.595703 0)"/>
      <use xlink:href="#DejaVuSans-61" transform="translate(628.072266 0)"/>
      <use xlink:href="#DejaVuSans-6c" transform="translate(689.351562 0)"/>
      <use xlink:href="#DejaVuSans-6c" transform="translate(717.134766 0)"/>
      <use xlink:href="#DejaVuSans-69" transform="translate(744.917969 0)"/>
      <use xlink:href="#DejaVuSans-6e" transform="translate(772.701172 0)"/>
      <use xlink:href="#DejaVuSans-67" transform="translate(836.080078 0)"/>
      <use xlink:href="#DejaVuSans-20" transform="translate(899.556641 0)"/>
      <use xlink:href="#DejaVuSans-61" transform="translate(931.34375 0)"/>
      <use xlink:href="#DejaVuSans-62" transform="translate(992.623047 0)"/>
      <use xlink:href="#DejaVuSans-73" transform="translate(1056.099609 0)"/>
      <use xlink:href="#DejaVuSans-6f" transform="translate(1108.199219 0)"/>
      <use xlink:href="#DejaVuSans-6c" transform="translate(1169.380859 0)"/>
      <use xlink:href="#DejaVuSans-75" transform="translate(1197.164062 0)"/>
      <use xlink:href="#DejaVuSans-74" transform="translate(1260.542969 0)"/>
      <use xlink:href="#DejaVuSans-65" transform="translate(1299.751953 0)"/>
      <use xlink:href="#DejaVuSans-6c" transform="translate(1361.275391 0)"/>
      <use xlink:href="#DejaVuSans-79" transform="translate(1389.058594 0)"/>
      <use xlink:href="#DejaVuSans-20" transform="translate(1448.238281 0)"/>
      <use xlink:href="#DejaVuSans-6d" transform="translate(1480.025391 0)"/>
      <use xlink:href="#DejaVuSans-6f" transform="translate(1577.4375 0)"/>
      <use xlink:href="#DejaVuSans-6e" transform="translate(1638.619141 0)"/>
      <use xlink:href="#DejaVuSans-6f" transform="translate(1701.998047 0)"/>
      <use xlink:href="#DejaVuSans-74" transform="translate(1763.179688 0)"/>
      <use xlink:href="#DejaVuSans-6f" transform="translate(1802.388672 0)"/>
      <use xlink:href="#DejaVuSans-6e" transform="translate(1863.570312 0)"/>
      <use xlink:href="#DejaVuSans-69" transform="translate(1926.949219 0)"/>
      <use xlink:href="#DejaVuSans-63" transform="translate(1954.732422 0)"/>
      <use xlink:href="#DejaVuSans-20" transform="translate(2009.712891 0)"/>
      <use xlink:href="#DejaVuSans-70" transform="translate(2041.5 0)"/>
      <use xlink:href="#DejaVuSans-6f" transform="translate(2104.976562 0)"/>
      <use xlink:href="#DejaVuSans-6c" transform="translate(2166.158203 0)"/>
      <use xlink:href="#DejaVuSans-79" transform="translate(2193.941406 0)"/>
      <use xlink:href="#DejaVuSans-6e" transform="translate(2253.121094 0)"/>
      <use xlink:href="#DejaVuSans-6f" transform="translate(2316.5 0)"/>
      <use xlink:href="#DejaVuSans-6d" transform="translate(2377.681641 0)"/>
      <use xlink:href="#DejaVuSans-69" transform="translate(2475.09375 0)"/>
      <use xlink:href="#DejaVuSans-61" transform="translate(2502.876953 0)"/>
      <use xlink:href="#DejaVuSans-6c" transform="translate(2564.15625 0)"/>
      <use xlink:href="#DejaVuSans-73" transform="translate(2591.939453 0)"/>
     </g>
    </g>
   </g>
   <g id="legend_2">
    <g id="patch_100">
     <path d="M 772.065904 74.3525 
L 841.562779 74.3525 
Q 843.562779 74.3525 843.562779 72.3525 
L 843.562779 29.318125 
Q 843.562779 27.318125 841.562779 27.318125 
L 772.065904 27.318125 
Q 770.065904 27.318125 770.065904 29.318125 
L 770.065904 72.3525 
Q 770.065904 74.3525 772.065904 74.3525 
z
" style="fill: #ffffff; opacity: 0.8; stroke: #cccccc; stroke-linejoin: miter"/>
    </g>
    <g id="text_27">
     <!-- Type -->
     <g transform="translate(795.331529 38.916562) scale(0.1 -0.1)">
      <defs>
       <path id="DejaVuSans-54" d="M -19 4666 
L 3928 4666 
L 3928 4134 
L 2272 4134 
L 2272 0 
L 1638 0 
L 1638 4134 
L -19 4134 
L -19 4666 
z
" transform="scale(0.015625)"/>
      </defs>
      <use xlink:href="#DejaVuSans-54"/>
      <use xlink:href="#DejaVuSans-79" transform="translate(45.458984 0)"/>
      <use xlink:href="#DejaVuSans-70" transform="translate(104.638672 0)"/>
      <use xlink:href="#DejaVuSans-65" transform="translate(168.115234 0)"/>
     </g>
    </g>
    <g id="patch_101">
     <path d="M 774.065904 53.594687 
L 794.065904 53.594687 
L 794.065904 46.594687 
L 774.065904 46.594687 
z
" style="fill: #808080"/>
    </g>
    <g id="text_28">
     <!-- Sample -->
     <g transform="translate(802.065904 53.594687) scale(0.1 -0.1)">
      <use xlink:href="#DejaVuSans-53"/>
      <use xlink:href="#DejaVuSans-61" transform="translate(63.476562 0)"/>
      <use xlink:href="#DejaVuSans-6d" transform="translate(124.755859 0)"/>
      <use xlink:href="#DejaVuSans-70" transform="translate(222.167969 0)"/>
      <use xlink:href="#DejaVuSans-6c" transform="translate(285.644531 0)"/>
      <use xlink:href="#DejaVuSans-65" transform="translate(313.427734 0)"/>
     </g>
    </g>
    <g id="patch_102">
     <path d="M 774.065904 68.272812 
L 794.065904 68.272812 
L 794.065904 61.272812 
L 774.065904 61.272812 
z
" style="fill: url(#hd5007a2508)"/>
    </g>
    <g id="text_29">
     <!-- Source -->
     <g transform="translate(802.065904 68.272812) scale(0.1 -0.1)">
      <use xlink:href="#DejaVuSans-53"/>
      <use xlink:href="#DejaVuSans-6f" transform="translate(63.476562 0)"/>
      <use xlink:href="#DejaVuSans-75" transform="translate(124.658203 0)"/>
      <use xlink:href="#DejaVuSans-72" transform="translate(188.037109 0)"/>
      <use xlink:href="#DejaVuSans-63" transform="translate(226.900391 0)"/>
      <use xlink:href="#DejaVuSans-65" transform="translate(281.880859 0)"/>
     </g>
    </g>
   </g>
  </g>
 </g>
 <defs>
  <clipPath id="p53e67ff6ab">
   <rect x="51.378125" y="22.318125" width="797.184654" height="267.590182"/>
  </clipPath>
 </defs>
 <defs>
  <pattern id="h5b9d37acef" patternUnits="userSpaceOnUse" x="0" y="0" width="72" height="72">
   <rect x="0" y="0" width="73" height="73" fill="#1f77b4"/>
   <path d="M -36 36 
L 36 -36 
M -30 42 
L 42 -30 
M -24 48 
L 48 -24 
M -18 54 
L 54 -18 
M -12 60 
L 60 -12 
M -6 66 
L 66 -6 
M 0 72 
L 72 0 
M 6 78 
L 78 6 
M 12 84 
L 84 12 
M 18 90 
L 90 18 
M 24 96 
L 96 24 
M 30 102 
L 102 30 
M 36 108 
L 108 36 
" style="fill: #000000; stroke: #000000; stroke-width: 1.0; stroke-linecap: butt; stroke-linejoin: miter"/>
  </pattern>
  <pattern id="h87b3918e23" patternUnits="userSpaceOnUse" x="0" y="0" width="72" height="72">
   <rect x="0" y="0" width="73" height="73" fill="#d62728"/>
   <path d="M -36 36 
L 36 -36 
M -30 42 
L 42 -30 
M -24 48 
L 48 -24 
M -18 54 
L 54 -18 
M -12 60 
L 60 -12 
M -6 66 
L 66 -6 
M 0 72 
L 72 0 
M 6 78 
L 78 6 
M 12 84 
L 84 12 
M 18 90 
L 90 18 
M 24 96 
L 96 24 
M 30 102 
L 102 30 
M 36 108 
L 108 36 
" style="fill: #000000; stroke: #000000; stroke-width: 1.0; stroke-linecap: butt; stroke-linejoin: miter"/>
  </pattern>
  <pattern id="h949f69acf0" patternUnits="userSpaceOnUse" x="0" y="0" width="72" height="72">
   <rect x="0" y="0" width="73" height="73" fill="#e377c2"/>
   <path d="M -36 36 
L 36 -36 
M -30 42 
L 42 -30 
M -24 48 
L 48 -24 
M -18 54 
L 54 -18 
M -12 60 
L 60 -12 
M -6 66 
L 66 -6 
M 0 72 
L 72 0 
M 6 78 
L 78 6 
M 12 84 
L 84 12 
M 18 90 
L 90 18 
M 24 96 
L 96 24 
M 30 102 
L 102 30 
M 36 108 
L 108 36 
" style="fill: #000000; stroke: #000000; stroke-width: 1.0; stroke-linecap: butt; stroke-linejoin: miter"/>
  </pattern>
  <pattern id="h0169a26d98" patternUnits="userSpaceOnUse" x="0" y="0" width="72" height="72">
   <rect x="0" y="0" width="73" height="73" fill="#17becf"/>
   <path d="M -36 36 
L 36 -36 
M -30 42 
L 42 -30 
M -24 48 
L 48 -24 
M -18 54 
L 54 -18 
M -12 60 
L 60 -12 
M -6 66 
L 66 -6 
M 0 72 
L 72 0 
M 6 78 
L 78 6 
M 12 84 
L 84 12 
M 18 90 
L 90 18 
M 24 96 
L 96 24 
M 30 102 
L 102 30 
M 36 108 
L 108 36 
" style="fill: #000000; stroke: #000000; stroke-width: 1.0; stroke-linecap: butt; stroke-linejoin: miter"/>
  </pattern>
  <pattern id="hd5007a2508" patternUnits="userSpaceOnUse" x="0" y="0" width="72" height="72">
   <rect x="0" y="0" width="73" height="73" fill="#808080"/>
   <path d="M -36 36 
L 36 -36 
M -30 42 
L 42 -30 
M -24 48 
L 48 -24 
M -18 54 
L 54 -18 
M -12 60 
L 60 -12 
M -6 66 
L 66 -6 
M 0 72 
L 72 0 
M 6 78 
L 78 6 
M 12 84 
L 84 12 
M 18 90 
L 90 18 
M 24 96 
L 96 24 
M 30 102 
L 102 30 
M 36 108 
L 108 36 
" style="fill: #000000; stroke: #000000; stroke-width: 1.0; stroke-linecap: butt; stroke-linejoin: miter"/>
  </pattern>
 </defs>
</svg>
